<?xml version="1.0" encoding="utf-8"?>
<!-- Generator: Adobe Illustrator 23.0.1, SVG Export Plug-In . SVG Version: 6.00 Build 0)  -->
<svg version="1.1" id="레이어_1" xmlns="http://www.w3.org/2000/svg" xmlns:xlink="http://www.w3.org/1999/xlink" x="0px"
	 y="0px" viewBox="0 0 100 100" style="enable-background:new 0 0 100 100;" xml:space="preserve">
<style type="text/css">
	.st0{fill:#FFFFFF;}
	.st1{fill:#C71717;}
</style>
<g>
	<g>
		<path class="st0" d="M34.62,81.71h-5.78c-3.79,0-6.88-3.09-6.88-6.88V29.85c0-3.79,3.09-6.88,6.88-6.88h36.21
			c3.79,0,6.88,3.08,6.88,6.88v37.94c0,0.42-0.34,0.76-0.76,0.76c-0.42,0-0.76-0.34-0.76-0.76V29.85c0-2.95-2.4-5.35-5.35-5.35
			H28.84c-2.95,0-5.35,2.4-5.35,5.35v44.98c0,2.95,2.4,5.35,5.35,5.35h5.78c0.42,0,0.76,0.34,0.76,0.76
			C35.39,81.37,35.04,81.71,34.62,81.71z"/>
		<path class="st0" d="M76.55,81.71H33.69c-0.42,0-0.76-0.34-0.76-0.76c0-0.42,0.34-0.76,0.76-0.76c4.07,0,7.05-1.13,8.88-3.35
			c2.94-3.57,1.94-8.85,1.93-8.9c-0.04-0.22,0.01-0.46,0.16-0.63c0.15-0.18,0.36-0.28,0.59-0.28h40.07c0.42,0,0.76,0.34,0.76,0.76
			C86.08,81.55,76.64,81.71,76.55,81.71z"/>
		<g>
			<path class="st0" d="M60.31,35.23H32.79c-0.16,0-0.29-0.13-0.29-0.29v-0.68c0-0.16,0.13-0.29,0.29-0.29h27.52
				c0.16,0,0.29,0.13,0.29,0.29v0.68C60.6,35.1,60.47,35.23,60.31,35.23z"/>
			<path class="st0" d="M59.97,35.74H33.13c-0.63,0-1.14-0.51-1.14-1.14c0-0.63,0.51-1.14,1.14-1.14h26.84
				c0.63,0,1.14,0.51,1.14,1.14C61.11,35.23,60.6,35.74,59.97,35.74z M33.13,34.48c-0.07,0-0.12,0.06-0.12,0.12
				c0,0.07,0.06,0.12,0.12,0.12h26.84c0.07,0,0.12-0.06,0.12-0.12c0-0.07-0.06-0.12-0.12-0.12H33.13z"/>
		</g>
		<g>
			<path class="st0" d="M60.31,46.59H32.79c-0.16,0-0.29-0.13-0.29-0.29v-0.68c0-0.16,0.13-0.29,0.29-0.29h27.52
				c0.16,0,0.29,0.13,0.29,0.29v0.68C60.6,46.46,60.47,46.59,60.31,46.59z"/>
			<path class="st0" d="M59.97,47.1H33.13c-0.63,0-1.14-0.51-1.14-1.14c0-0.63,0.51-1.14,1.14-1.14h26.84
				c0.63,0,1.14,0.51,1.14,1.14C61.11,46.59,60.6,47.1,59.97,47.1z M33.13,45.84c-0.07,0-0.12,0.06-0.12,0.12
				c0,0.07,0.06,0.12,0.12,0.12h26.84c0.07,0,0.12-0.06,0.12-0.12c0-0.07-0.06-0.12-0.12-0.12H33.13z"/>
		</g>
		<g>
			<path class="st0" d="M60.31,57.82H32.79c-0.16,0-0.29-0.13-0.29-0.29v-0.68c0-0.16,0.13-0.29,0.29-0.29h27.52
				c0.16,0,0.29,0.13,0.29,0.29v0.68C60.6,57.69,60.47,57.82,60.31,57.82z"/>
			<path class="st0" d="M59.97,58.33H33.13c-0.63,0-1.14-0.51-1.14-1.14c0-0.63,0.51-1.14,1.14-1.14h26.84
				c0.63,0,1.14,0.51,1.14,1.14C61.11,57.82,60.6,58.33,59.97,58.33z M33.13,57.07c-0.07,0-0.12,0.06-0.12,0.12
				c0,0.07,0.06,0.12,0.12,0.12h26.84c0.07,0,0.12-0.06,0.12-0.12c0-0.07-0.06-0.12-0.12-0.12H33.13z"/>
		</g>
	</g>
	<path class="st0" d="M18.22,39.82h-0.8c-0.19,0-0.34-0.15-0.34-0.34V18.2c0-0.19,0.15-0.34,0.34-0.34h0.8
		c0.19,0,0.34,0.15,0.34,0.34v21.27C18.56,39.66,18.41,39.82,18.22,39.82z"/>
	<path class="st0" d="M15.07,54.09h-0.8c-0.19,0-0.34-0.15-0.34-0.34V32.48c0-0.19,0.15-0.34,0.34-0.34h0.8
		c0.19,0,0.34,0.15,0.34,0.34v21.27C15.41,53.94,15.26,54.09,15.07,54.09z"/>
	<path class="st0" d="M18.22,46.59h-0.8c-0.19,0-0.34-0.15-0.34-0.34v-4.42c0-0.19,0.15-0.34,0.34-0.34h0.8
		c0.19,0,0.34,0.15,0.34,0.34v4.42C18.56,46.44,18.41,46.59,18.22,46.59z"/>
	<path class="st0" d="M82.55,48.66h-0.8c-0.19,0-0.34-0.15-0.34-0.34V27.05c0-0.19,0.15-0.34,0.34-0.34h0.8
		c0.19,0,0.34,0.15,0.34,0.34v21.27C82.89,48.51,82.73,48.66,82.55,48.66z"/>
	<path class="st0" d="M79.39,62.94h-0.8c-0.19,0-0.34-0.15-0.34-0.34V41.32c0-0.19,0.15-0.34,0.34-0.34h0.8
		c0.19,0,0.34,0.15,0.34,0.34V62.6C79.74,62.78,79.58,62.94,79.39,62.94z"/>
	<path class="st0" d="M82.55,55.44h-0.8c-0.19,0-0.34-0.15-0.34-0.34v-4.42c0-0.19,0.15-0.34,0.34-0.34h0.8
		c0.19,0,0.34,0.15,0.34,0.34v4.42C82.89,55.29,82.73,55.44,82.55,55.44z"/>
</g>
<path class="st1" d="M68.34,46.13c3.1,0,5.23-0.61,6.33-1.81c0.78-0.86,0.71-1.7,0.71-1.71l0-5.91l-0.55,0.58
	c-0.01,0.02-1.69,1.72-6.48,1.72h-3.18V28.92h-6.24c-1.47,0-2.66,1.19-2.66,2.65v7.44H45.67c-3.58,0-5.26,1.46-6.55,3.03l-4.35,5.36
	l0,0l-0.86,1.06c0,0,0.03-0.03,0.09-0.08l-1.21,1.53v-21h-6.24c-1.46,0-2.65,1.19-2.65,2.66v39.18h6.24c1.46,0,2.65-1.19,2.65-2.66
	V57.67l5.05,6.2l4.3,5.29c0.87,1.09,2,1.59,3.18,1.59h8.7l-5.63-6.9l-8.12-9.99l6.28-7.73h9.71v16.51c0,4.8,3.31,8.12,8.12,8.12
	h6.84c1.47,0,2.66-1.19,2.66-2.66v-4.73h-6.35c-1.31,0-2.38-1.07-2.38-2.39V46.13H68.34z"/>
</svg>
