<?xml version="1.0" encoding="utf-8"?>
<!-- Generator: Adobe Illustrator 23.0.1, SVG Export Plug-In . SVG Version: 6.00 Build 0)  -->
<svg version="1.1" id="레이어_1" xmlns="http://www.w3.org/2000/svg" xmlns:xlink="http://www.w3.org/1999/xlink" x="0px"
	 y="0px" viewBox="0 0 100 100" style="enable-background:new 0 0 100 100;" xml:space="preserve">
<style type="text/css">
	.st0{fill:#C71717;}
</style>
<g>
	<path class="st0" d="M33.54,70.39c-3.89,0-7.06-3.74-7.06-8.33s3.17-8.33,7.06-8.33s7.06,3.74,7.06,8.33S37.43,70.39,33.54,70.39z
		 M33.54,54.73c-3.34,0-6.06,3.29-6.06,7.33s2.72,7.33,6.06,7.33c3.34,0,6.06-3.29,6.06-7.33S36.88,54.73,33.54,54.73z"/>
	<path class="st0" d="M43.86,82.64H23.21c-1.39,0-2.51-1.13-2.51-2.51V71.9c0-1.39,1.13-2.51,2.51-2.51h5.48l0.15,0.22
		c1.16,1.72,2.87,2.7,4.69,2.7c1.83,0,3.54-0.98,4.7-2.7l0.15-0.22h5.48c1.39,0,2.51,1.13,2.51,2.51v8.23
		C46.37,81.51,45.24,82.64,43.86,82.64z M23.21,70.39c-0.83,0-1.51,0.68-1.51,1.51v8.23c0,0.83,0.68,1.51,1.51,1.51h20.64
		c0.83,0,1.51-0.68,1.51-1.51V71.9c0-0.83-0.68-1.51-1.51-1.51h-4.95c-1.34,1.86-3.29,2.92-5.37,2.92c-2.08,0-4.02-1.06-5.37-2.92
		H23.21z"/>
	<path class="st0" d="M64.88,70.39c-3.89,0-7.06-3.74-7.06-8.33s3.17-8.33,7.06-8.33c3.89,0,7.06,3.74,7.06,8.33
		S68.77,70.39,64.88,70.39z M64.88,54.73c-3.34,0-6.06,3.29-6.06,7.33s2.72,7.33,6.06,7.33c3.34,0,6.06-3.29,6.06-7.33
		S68.22,54.73,64.88,54.73z"/>
	<path class="st0" d="M75.2,82.64H54.55c-1.39,0-2.51-1.13-2.51-2.51V71.9c0-1.39,1.13-2.51,2.51-2.51h5.48l0.15,0.22
		c1.16,1.72,2.87,2.7,4.7,2.7c1.83,0,3.54-0.98,4.7-2.7l0.15-0.22h5.48c1.39,0,2.51,1.13,2.51,2.51v8.23
		C77.71,81.51,76.58,82.64,75.2,82.64z M54.55,70.39c-0.83,0-1.51,0.68-1.51,1.51v8.23c0,0.83,0.68,1.51,1.51,1.51H75.2
		c0.83,0,1.51-0.68,1.51-1.51V71.9c0-0.83-0.68-1.51-1.51-1.51h-4.95c-1.34,1.86-3.29,2.92-5.37,2.92c-2.08,0-4.02-1.06-5.37-2.92
		H54.55z"/>
	<g>
		<path class="st0" d="M31.87,44.47c-0.21,0-0.42-0.04-0.61-0.15c-0.49-0.27-0.75-0.9-0.75-1.85V21.02c0-1.62,1.28-2.95,2.85-2.95
			h21.39c1.57,0,2.85,1.32,2.85,2.95v14.44c0,1.62-1.28,2.95-2.85,2.95H40.93l-7.8,5.66C33.09,44.1,32.49,44.47,31.87,44.47z
			 M33.36,18.54c-1.32,0-2.39,1.12-2.39,2.49v21.44c0,0.53,0.09,1.22,0.51,1.45c0.53,0.3,1.39-0.22,1.39-0.23l7.91-5.74h13.97
			c1.32,0,2.39-1.12,2.39-2.49V21.02c0-1.37-1.07-2.49-2.39-2.49H33.36z"/>
		<path class="st0" d="M31.87,44.59c-0.25,0-0.47-0.05-0.67-0.16c-0.54-0.3-0.81-0.96-0.81-1.96V21.02c0-1.69,1.33-3.07,2.97-3.07
			h21.39c1.64,0,2.97,1.38,2.97,3.07v14.44c0,1.69-1.33,3.07-2.97,3.07H40.97l-7.76,5.64C33.13,44.22,32.52,44.59,31.87,44.59z
			 M33.36,18.2c-1.5,0-2.72,1.27-2.72,2.82v21.44c0,0.91,0.23,1.49,0.68,1.74c0.16,0.09,0.34,0.13,0.55,0.13
			c0.58,0,1.14-0.34,1.2-0.38l7.82-5.68h13.86c1.5,0,2.72-1.27,2.72-2.82V21.02c0-1.56-1.22-2.82-2.72-2.82H33.36z M31.88,44.13
			c-0.16,0-0.31-0.03-0.45-0.11c-0.47-0.26-0.57-0.99-0.57-1.56V21.02c0-1.44,1.13-2.61,2.51-2.61h21.39c1.39,0,2.51,1.17,2.51,2.61
			v14.44c0,1.44-1.13,2.61-2.51,2.61H40.82l-7.87,5.71C32.95,43.79,32.4,44.13,31.88,44.13z M33.36,18.66
			c-1.25,0-2.26,1.06-2.26,2.36v21.44c0,0.71,0.16,1.18,0.44,1.34c0.47,0.26,1.26-0.22,1.27-0.22l7.93-5.76h14.01
			c1.25,0,2.26-1.06,2.26-2.36V21.02c0-1.3-1.02-2.36-2.26-2.36H33.36z"/>
	</g>
	<path class="st0" d="M62.03,27.11h-4.66v8.35c0,1.49-1.18,2.72-2.62,2.72H40.86l-0.82,0.59v4.05c0,1.37,1.08,2.49,2.4,2.49h12.73
		l7.2,5.22c0,0,2.07,1.3,2.07-1.3v-6.41v-2.46V29.6C64.43,28.23,63.35,27.11,62.03,27.11z"/>
	<path class="st0" d="M52.19,24.68H36.41c-0.41,0-0.74-0.33-0.74-0.74v-0.36c0-0.41,0.33-0.74,0.74-0.74h15.78
		c0.41,0,0.74,0.33,0.74,0.74v0.36C52.94,24.34,52.6,24.68,52.19,24.68z"/>
	<path class="st0" d="M52.19,28.83H36.41c-0.41,0-0.74-0.33-0.74-0.74v-0.36c0-0.41,0.33-0.74,0.74-0.74h15.78
		c0.41,0,0.74,0.33,0.74,0.74v0.36C52.94,28.49,52.6,28.83,52.19,28.83z"/>
	<path class="st0" d="M52.19,32.98H36.41c-0.41,0-0.74-0.33-0.74-0.74v-0.36c0-0.41,0.33-0.74,0.74-0.74h15.78
		c0.41,0,0.74,0.33,0.74,0.74v0.36C52.94,32.64,52.6,32.98,52.19,32.98z"/>
</g>
</svg>
