<?xml version="1.0" encoding="utf-8"?>
<!-- Generator: Adobe Illustrator 23.0.1, SVG Export Plug-In . SVG Version: 6.00 Build 0)  -->
<svg version="1.1" id="레이어_1" xmlns="http://www.w3.org/2000/svg" xmlns:xlink="http://www.w3.org/1999/xlink" x="0px"
	 y="0px" viewBox="0 0 100 100" style="enable-background:new 0 0 100 100;" xml:space="preserve">
<style type="text/css">
	.st0{fill:#C71717;}
</style>
<g>
	<path class="st0" d="M53.58,72.53H33.72c-1.19,0-2.15,0.96-2.15,2.15h0.88c0-0.7,0.57-1.27,1.28-1.27h19.86
		c0.7,0,1.27,0.57,1.27,1.27h0.88C55.73,73.49,54.76,72.53,53.58,72.53z"/>
	<rect x="41.48" y="61.55" class="st0" width="4.34" height="1.75"/>
	<path class="st0" d="M36.06,71.56h1.75V67.2h11.52v4.36h1.75V67.2h4.03v-0.88H22.19c-1.65,0-2.99-1.34-2.99-2.99v-4.3h35.92v-0.88
		H19.2V29.78c0-1.65,1.34-2.99,2.99-2.99h44.75c1.65,0,2.99,1.34,2.99,2.99v4.11h0.88v-4.11c0-2.13-1.73-3.86-3.86-3.86H22.19
		c-2.13,0-3.86,1.73-3.86,3.86v33.56c0,2.13,1.73,3.86,3.86,3.86h13.88V71.56z"/>
	<path class="st0" d="M79.54,48.25l-2.94-0.47c-0.13-0.37-0.28-0.72-0.45-1.07l1.7-2.45c0.76-0.76,0.76-2,0-2.75l-0.7-0.7
		c-0.76-0.76-2-0.76-2.75,0l-2.42,1.75c-0.34-0.17-0.7-0.32-1.07-0.44l-0.53-2.93c0-1.07-0.88-1.95-1.95-1.95h-0.99
		c-1.07,0-1.95,0.88-1.95,1.95l-0.47,2.94c-0.37,0.13-0.72,0.28-1.07,0.45l-2.45-1.7c-0.76-0.76-2-0.76-2.75,0l-0.7,0.7
		c-0.76,0.76-0.76,2,0,2.75l1.75,2.42c-0.17,0.34-0.32,0.7-0.44,1.07l-2.93,0.53c-1.07,0-1.95,0.88-1.95,1.95v0.99
		c0,1.07,0.88,1.95,1.95,1.95l2.94,0.47c0.13,0.37,0.28,0.72,0.45,1.07l-1.7,2.45c-0.76,0.76-0.76,2,0,2.75l0.7,0.7
		c0.76,0.76,2,0.76,2.75,0l2.42-1.75c0.34,0.17,0.7,0.32,1.07,0.44l0.53,2.93c0,1.07,0.88,1.95,1.95,1.95h0.99
		c1.07,0,1.95-0.88,1.95-1.95l0.47-2.94c0.37-0.13,0.72-0.28,1.07-0.45l2.45,1.7c0.76,0.76,2,0.76,2.75,0l0.7-0.7
		c0.76-0.76,0.76-2,0-2.75l-1.75-2.42c0.17-0.34,0.32-0.7,0.44-1.07l2.93-0.53c1.07,0,1.95-0.88,1.95-1.95v-0.99
		C81.49,49.12,80.61,48.25,79.54,48.25z M71.96,50.73c0,2.2-1.78,3.98-3.98,3.98s-3.98-1.78-3.98-3.98c0-2.2,1.78-3.98,3.98-3.98
		S71.96,48.54,71.96,50.73z"/>
	<path class="st0" d="M80.11,66.17c-0.12-0.45-0.6-0.72-1.05-0.59l-1.31,0.15c-0.09-0.14-0.19-0.27-0.3-0.39l0.44-1.24
		c0.23-0.41,0.09-0.93-0.32-1.16l-0.38-0.21c-0.41-0.23-0.93-0.09-1.16,0.32l-0.82,1.03c-0.16-0.03-0.32-0.05-0.49-0.06l-0.57-1.19
		c-0.12-0.45-0.6-0.72-1.05-0.59l-0.42,0.12c-0.45,0.12-0.72,0.6-0.59,1.05l0.15,1.31c-0.14,0.09-0.27,0.19-0.39,0.3l-1.24-0.44
		c-0.41-0.23-0.93-0.09-1.16,0.32l-0.21,0.38c-0.23,0.41-0.09,0.93,0.32,1.16l1.03,0.82c-0.03,0.16-0.05,0.32-0.06,0.49l-1.19,0.57
		c-0.45,0.12-0.72,0.6-0.59,1.05l0.12,0.42c0.12,0.45,0.6,0.72,1.05,0.59l1.31-0.15c0.09,0.14,0.19,0.27,0.3,0.39l-0.44,1.24
		c-0.23,0.41-0.09,0.93,0.32,1.16l0.38,0.21c0.41,0.23,0.93,0.09,1.16-0.32l0.82-1.03c0.16,0.03,0.32,0.05,0.49,0.06l0.57,1.19
		c0.12,0.45,0.6,0.72,1.05,0.59l0.42-0.12c0.45-0.12,0.72-0.6,0.59-1.05l-0.15-1.31c0.14-0.09,0.27-0.19,0.39-0.3l1.24,0.44
		c0.41,0.23,0.93,0.09,1.16-0.32l0.21-0.38c0.23-0.41,0.09-0.93-0.32-1.16l-1.03-0.82c0.03-0.16,0.05-0.32,0.06-0.49l1.19-0.57
		c0.45-0.12,0.72-0.6,0.59-1.05L80.11,66.17z M74.95,69.64c-0.93,0.26-1.88-0.29-2.14-1.21s0.29-1.88,1.21-2.14
		c0.93-0.26,1.88,0.29,2.14,1.21C76.42,68.43,75.87,69.39,74.95,69.64z"/>
	<path class="st0" d="M64.34,64.86c-0.07-0.24-0.31-0.38-0.55-0.31l-0.69,0.08c-0.05-0.07-0.1-0.14-0.16-0.2l0.23-0.66
		c0.12-0.22,0.05-0.49-0.17-0.61l-0.2-0.11c-0.22-0.12-0.49-0.05-0.61,0.17l-0.43,0.54c-0.08-0.02-0.17-0.02-0.26-0.03l-0.3-0.63
		c-0.07-0.24-0.31-0.38-0.55-0.31l-0.22,0.06c-0.24,0.07-0.38,0.31-0.31,0.55l0.08,0.69c-0.07,0.05-0.14,0.1-0.2,0.16l-0.66-0.23
		c-0.22-0.12-0.49-0.05-0.61,0.17l-0.11,0.2c-0.12,0.22-0.05,0.49,0.17,0.61l0.54,0.43c-0.02,0.08-0.02,0.17-0.03,0.26l-0.63,0.3
		c-0.24,0.07-0.38,0.31-0.31,0.55l0.06,0.22c0.07,0.24,0.31,0.38,0.55,0.31l0.69-0.08c0.05,0.07,0.1,0.14,0.16,0.2l-0.23,0.66
		c-0.12,0.22-0.05,0.49,0.17,0.61l0.2,0.11c0.22,0.12,0.49,0.05,0.61-0.17l0.43-0.54c0.08,0.02,0.17,0.02,0.26,0.03l0.3,0.63
		c0.07,0.24,0.31,0.38,0.55,0.31l0.22-0.06c0.24-0.07,0.38-0.31,0.31-0.55l-0.08-0.69c0.07-0.05,0.14-0.1,0.2-0.16l0.66,0.23
		c0.22,0.12,0.49,0.05,0.61-0.17l0.11-0.2c0.12-0.21,0.05-0.49-0.17-0.61l-0.54-0.43c0.02-0.08,0.02-0.17,0.03-0.26l0.63-0.3
		c0.24-0.07,0.38-0.31,0.31-0.55L64.34,64.86z M61.61,66.69c-0.49,0.14-0.99-0.15-1.13-0.64c-0.14-0.49,0.15-0.99,0.64-1.13
		c0.49-0.14,0.99,0.15,1.13,0.64C62.38,66.05,62.1,66.56,61.61,66.69z"/>
	<path class="st0" d="M51.44,54.81H25.16c-1.67,0-3.04-1.36-3.04-3.04V32.67c0-1.67,1.36-3.04,3.04-3.04h38.56
		c1.67,0,3.04,1.36,3.04,3.04h-1c0-1.12-0.91-2.04-2.04-2.04H25.16c-1.12,0-2.04,0.91-2.04,2.04v19.11c0,1.12,0.91,2.04,2.04,2.04
		h26.29V54.81z"/>
</g>
</svg>
