<?xml version="1.0" encoding="utf-8"?>
<!-- Generator: Adobe Illustrator 23.0.1, SVG Export Plug-In . SVG Version: 6.00 Build 0)  -->
<svg version="1.1" id="레이어_1" xmlns="http://www.w3.org/2000/svg" xmlns:xlink="http://www.w3.org/1999/xlink" x="0px"
	 y="0px" viewBox="0 0 100 100" style="enable-background:new 0 0 100 100;" xml:space="preserve">
<style type="text/css">
	.st0{fill:#FFFFFF;}
</style>
<g>
	<path class="st0" d="M11.08,46.02l-0.15-0.32c-0.23-0.5-5.54-12.43,0.12-17.51c5.9-5.29,24.83-10.1,39.72-10.1
		c13.92,0,24.52,2.1,34.39,6.82c8.94,4.28,4.59,18.62,4.4,19.22l-0.09,0.3l-0.31,0.04c-7.96,1.13-19-3.78-19.46-3.99l-0.29-0.13
		v-6.98c-1.42-0.72-8.62-4.13-18.62-4.13c-9.85,0-17.1,2.87-18.7,3.56l1.11,7.43l-0.21,0.18c-4.77,4-20.85,5.51-21.53,5.57
		L11.08,46.02z M50.78,19.09c-15.81,0-33.97,5.29-39.05,9.84c-4.64,4.16-0.82,14.1-0.02,16.03c2.39-0.25,16-1.77,20.41-5.13
		l-1.14-7.61l0.33-0.16c0.08-0.04,8.08-3.81,19.47-3.81c11.41,0,19.05,4.21,19.37,4.39l0.26,0.14v6.92
		c1.79,0.76,11.35,4.66,18.3,3.83c0.57-2.08,3.52-14.14-3.96-17.72C75.01,21.17,64.54,19.09,50.78,19.09z"/>
	<circle class="st0" cx="50.78" cy="61.67" r="8.28"/>
	<path class="st0" d="M70.74,82.68c-2.23,0-4.05-1.75-4.16-3.95H33.15c-0.02,2.18-1.8,3.95-3.98,3.95c-2.18,0-3.96-1.77-3.98-3.95
		h-3.53l-0.04-0.45c-0.08-0.82-1.88-20.27,5.8-27.5c0.66-0.62,1.29-1.26,1.9-1.89c1.54-1.58,3-3.07,4.83-4.14
		c-0.08-0.33-0.11-0.64-0.11-0.94v-5.27c0-2.56,2.08-4.64,4.64-4.64c2.56,0,4.64,2.08,4.64,4.64v2.9c3.54-0.73,6.15-0.77,6.27-0.77
		c3.89,0,6.6,0.2,8.91,0.68v-2.91c0-2.51,2.04-4.54,4.54-4.54c2.51,0,4.54,2.04,4.54,4.54v5.46c0,0.48-0.08,0.96-0.23,1.41
		c1.58,1.08,3.36,2.45,5.88,4.5h0c9.33,7.62,6.33,27.65,6.2,28.5l-0.07,0.42h-4.45C74.79,80.92,72.97,82.68,70.74,82.68z
		 M32.15,77.73h35.43v0.78c0,1.75,1.42,3.17,3.17,3.17c1.75,0,3.17-1.42,3.17-3.17v-0.78h4.58c0.38-2.95,2.27-20.47-5.9-27.14h0
		c-2.67-2.17-4.5-3.57-6.13-4.67l-0.35-0.23l0.17-0.38c0.2-0.45,0.3-0.92,0.3-1.41v-5.46c0-1.95-1.59-3.54-3.54-3.54
		c-1.95,0-3.54,1.59-3.54,3.54v4.16l-0.61-0.14c-2.36-0.55-5.14-0.79-9.29-0.79c-0.02,0-2.93,0.05-6.66,0.88l-0.61,0.13v-4.14
		c0-2.01-1.63-3.64-3.64-3.64c-2.01,0-3.64,1.63-3.64,3.64v5.27c0,0.32,0.06,0.65,0.17,1.04l0.12,0.39l-0.36,0.2
		c-1.86,1-3.35,2.53-4.93,4.15c-0.62,0.64-1.26,1.29-1.93,1.92c-6.7,6.31-5.75,23.24-5.53,26.23h3.61v0.97
		c0,1.64,1.34,2.98,2.98,2.98c1.64,0,2.98-1.34,2.98-2.98V77.73z M50.78,74.43c-7.03,0-12.76-5.72-12.76-12.76
		c0-7.03,5.72-12.75,12.76-12.75s12.76,5.72,12.76,12.75C63.53,68.71,57.81,74.43,50.78,74.43z M50.78,49.92
		c-6.48,0-11.76,5.27-11.76,11.75c0,6.48,5.27,11.76,11.76,11.76c6.48,0,11.76-5.27,11.76-11.76
		C62.53,55.19,57.26,49.92,50.78,49.92z"/>
</g>
</svg>
