<?xml version="1.0" encoding="utf-8"?>
<!-- Generator: Adobe Illustrator 23.0.1, SVG Export Plug-In . SVG Version: 6.00 Build 0)  -->
<svg version="1.1" id="레이어_1" xmlns="http://www.w3.org/2000/svg" xmlns:xlink="http://www.w3.org/1999/xlink" x="0px"
	 y="0px" viewBox="0 0 100 100" style="enable-background:new 0 0 100 100;" xml:space="preserve">
<style type="text/css">
	.st0{fill:#FFFFFF;}
</style>
<g>
	<g>
		<ellipse class="st0" cx="59.84" cy="27.17" rx="9.69" ry="3.55"/>
		<path class="st0" d="M59.4,38.33c-8.04,0-9.75-2.99-9.82-3.12c-0.02-0.04-0.03-0.08-0.03-0.12v-5.89c0-0.11,0.07-0.21,0.17-0.24
			c0.1-0.03,0.22,0,0.28,0.09c0.02,0.03,2.3,3.12,9.39,3.12c7.15,0,10.28-3.12,10.31-3.15c0.07-0.07,0.18-0.1,0.27-0.06
			c0.09,0.04,0.16,0.13,0.16,0.23v5.97c0,0.06-0.02,0.12-0.06,0.16C69.97,35.46,67.41,38.33,59.4,38.33z M50.05,35.02
			c0.25,0.37,2.2,2.81,9.35,2.81c7.1,0,9.81-2.34,10.24-2.76v-5.32c-1.09,0.87-4.3,2.93-10.24,2.93c-5.68,0-8.37-1.89-9.35-2.83
			V35.02z"/>
	</g>
	<g>
		<path class="st0" d="M90.94,36.47c0,1.96-4.34,3.55-9.69,3.55c-5.35,0-9.69-1.59-9.69-3.55c0-1.96,4.34-3.55,9.69-3.55
			C86.61,32.92,90.94,34.51,90.94,36.47z"/>
		<path class="st0" d="M80.81,47.63c-8.04,0-9.75-2.99-9.82-3.12c-0.02-0.04-0.03-0.08-0.03-0.12V38.5c0-0.11,0.07-0.21,0.17-0.24
			c0.1-0.03,0.22,0.01,0.28,0.09c0.02,0.03,2.29,3.12,9.39,3.12c7.15,0,10.28-3.12,10.31-3.15c0.07-0.07,0.18-0.1,0.27-0.06
			c0.09,0.04,0.16,0.13,0.16,0.23v5.97c0,0.06-0.02,0.12-0.06,0.16C91.38,44.76,88.82,47.63,80.81,47.63z M71.46,44.32
			c0.25,0.37,2.2,2.81,9.35,2.81c7.09,0,9.81-2.34,10.24-2.75v-5.32c-1.09,0.87-4.3,2.93-10.24,2.93c-5.69,0-8.37-1.89-9.35-2.83
			V44.32z"/>
		<path class="st0" d="M80.81,55.32c-8.04,0-9.75-2.99-9.82-3.12c-0.02-0.04-0.03-0.08-0.03-0.12V46.2c0-0.11,0.07-0.21,0.17-0.24
			c0.1-0.03,0.22,0.01,0.28,0.09c0.02,0.03,2.29,3.12,9.39,3.12c7.15,0,10.28-3.12,10.31-3.15c0.07-0.07,0.18-0.1,0.27-0.06
			c0.09,0.04,0.16,0.13,0.16,0.23v5.97c0,0.06-0.02,0.12-0.06,0.16C91.38,52.45,88.82,55.32,80.81,55.32z M71.46,52.01
			c0.25,0.37,2.2,2.81,9.35,2.81c7.09,0,9.81-2.34,10.24-2.76v-5.32c-1.09,0.87-4.3,2.93-10.24,2.93c-5.69,0-8.37-1.89-9.35-2.83
			V52.01z"/>
		<path class="st0" d="M80.81,62.92c-8.04,0-9.75-2.99-9.82-3.12c-0.02-0.04-0.03-0.08-0.03-0.12V53.8c0-0.11,0.07-0.21,0.17-0.24
			c0.1-0.03,0.22,0.01,0.28,0.09c0.02,0.03,2.29,3.12,9.39,3.12c7.15,0,10.28-3.12,10.31-3.15c0.07-0.07,0.18-0.1,0.27-0.06
			c0.09,0.04,0.16,0.13,0.16,0.23v5.97c0,0.06-0.02,0.12-0.06,0.16C91.38,60.05,88.82,62.92,80.81,62.92z M71.46,59.61
			c0.25,0.37,2.2,2.81,9.35,2.81c7.09,0,9.81-2.34,10.24-2.75v-5.32c-1.09,0.87-4.3,2.93-10.24,2.93c-5.69,0-8.37-1.89-9.35-2.83
			V59.61z"/>
	</g>
	<g>
		<path class="st0" d="M48.12,35.76c0,1.96-4.34,3.55-9.69,3.55c-5.35,0-9.69-1.59-9.69-3.55c0-1.96,4.34-3.55,9.69-3.55
			C43.78,32.21,48.12,33.8,48.12,35.76z"/>
		<path class="st0" d="M37.99,46.92c-8.04,0-9.75-2.99-9.82-3.12c-0.02-0.04-0.03-0.08-0.03-0.12V37.8c0-0.11,0.07-0.21,0.17-0.24
			c0.1-0.03,0.22,0,0.28,0.09c0.02,0.03,2.3,3.12,9.39,3.12c7.15,0,10.28-3.12,10.31-3.15c0.07-0.07,0.18-0.1,0.27-0.06
			c0.09,0.04,0.16,0.13,0.16,0.23v5.97c0,0.06-0.02,0.12-0.06,0.16C48.56,44.05,46,46.92,37.99,46.92z M28.64,43.62
			c0.25,0.37,2.2,2.81,9.35,2.81c7.1,0,9.81-2.34,10.24-2.76v-5.32c-1.09,0.87-4.3,2.93-10.24,2.93c-5.68,0-8.37-1.89-9.35-2.83
			V43.62z"/>
		<path class="st0" d="M37.99,54.62c-8.04,0-9.75-2.99-9.82-3.12c-0.02-0.04-0.03-0.08-0.03-0.12v-5.89c0-0.11,0.07-0.21,0.17-0.24
			c0.1-0.03,0.22,0,0.28,0.09c0.02,0.03,2.3,3.12,9.39,3.12c7.15,0,10.28-3.12,10.31-3.15c0.07-0.07,0.18-0.1,0.27-0.06
			c0.09,0.04,0.16,0.13,0.16,0.23v5.97c0,0.06-0.02,0.12-0.06,0.16C48.56,51.75,46,54.62,37.99,54.62z M28.64,51.31
			c0.25,0.37,2.2,2.81,9.35,2.81c7.09,0,9.81-2.34,10.24-2.75v-5.32c-1.09,0.87-4.3,2.93-10.24,2.93c-5.68,0-8.37-1.89-9.35-2.83
			V51.31z"/>
		<path class="st0" d="M37.99,62.21c-8.04,0-9.75-2.99-9.82-3.12c-0.02-0.04-0.03-0.08-0.03-0.12v-5.89c0-0.11,0.07-0.21,0.17-0.24
			c0.1-0.03,0.22,0,0.28,0.09c0.02,0.03,2.3,3.12,9.39,3.12c7.15,0,10.28-3.12,10.31-3.15c0.07-0.07,0.18-0.1,0.27-0.06
			c0.09,0.04,0.16,0.13,0.16,0.23v5.97c0,0.06-0.02,0.12-0.06,0.16C48.56,59.35,46,62.21,37.99,62.21z M28.64,58.91
			c0.25,0.37,2.2,2.81,9.35,2.81c7.09,0,9.81-2.34,10.24-2.75v-5.32c-1.09,0.87-4.3,2.93-10.24,2.93c-5.68,0-8.37-1.89-9.35-2.83
			V58.91z"/>
	</g>
	<g>
		<ellipse class="st0" cx="59.84" cy="44.25" rx="9.69" ry="3.55"/>
		<path class="st0" d="M59.4,55.4c-8.04,0-9.75-2.99-9.82-3.12c-0.02-0.04-0.03-0.08-0.03-0.12v-5.89c0-0.11,0.07-0.21,0.17-0.24
			c0.1-0.03,0.22,0,0.28,0.09c0.02,0.03,2.3,3.12,9.39,3.12c7.15,0,10.28-3.12,10.31-3.15c0.07-0.07,0.18-0.1,0.27-0.06
			c0.09,0.04,0.16,0.13,0.16,0.23v5.97c0,0.06-0.02,0.12-0.06,0.16C69.97,52.54,67.41,55.4,59.4,55.4z M50.05,52.1
			c0.25,0.37,2.2,2.81,9.35,2.81c7.1,0,9.81-2.34,10.24-2.76v-5.32c-1.09,0.87-4.3,2.93-10.24,2.93c-5.68,0-8.37-1.89-9.35-2.83
			V52.1z"/>
		<path class="st0" d="M59.4,63.1c-8.04,0-9.75-2.99-9.82-3.12c-0.02-0.04-0.03-0.08-0.03-0.12v-5.89c0-0.11,0.07-0.21,0.17-0.24
			c0.1-0.03,0.22,0,0.28,0.09c0.02,0.03,2.3,3.12,9.39,3.12c7.15,0,10.28-3.12,10.31-3.15c0.07-0.07,0.18-0.1,0.27-0.06
			c0.09,0.04,0.16,0.13,0.16,0.23v5.97c0,0.06-0.02,0.12-0.06,0.16C69.97,60.23,67.41,63.1,59.4,63.1z M50.05,59.79
			c0.25,0.37,2.2,2.81,9.35,2.81c7.09,0,9.81-2.34,10.24-2.75v-5.32c-1.09,0.87-4.3,2.93-10.24,2.93c-5.68,0-8.37-1.89-9.35-2.83
			V59.79z"/>
		<path class="st0" d="M59.4,70.7c-8.04,0-9.75-2.99-9.82-3.12c-0.02-0.04-0.03-0.08-0.03-0.12v-5.89c0-0.11,0.07-0.21,0.17-0.24
			c0.1-0.03,0.22,0,0.28,0.09c0.02,0.03,2.3,3.12,9.39,3.12c7.15,0,10.28-3.12,10.31-3.15c0.07-0.07,0.18-0.09,0.27-0.06
			c0.09,0.04,0.16,0.13,0.16,0.23v5.97c0,0.06-0.02,0.12-0.06,0.16C69.97,67.83,67.41,70.7,59.4,70.7z M50.05,67.39
			c0.25,0.37,2.2,2.81,9.35,2.81c7.09,0,9.81-2.34,10.24-2.75v-5.32c-1.09,0.87-4.3,2.93-10.24,2.93c-5.68,0-8.37-1.89-9.35-2.83
			V67.39z"/>
	</g>
	<path class="st0" d="M33.47,58.88l-4.04,3.12c0,0-4.77-3.36-8.51-10.05S17.2,39.35,17.2,39.35l4.08-2.28c0,0-0.72-8.27-3.97-12.53
		c0,0-9.96,2.1-9.55,8.52c0.41,6.42,2.15,13.16,7.22,22.23c5.07,9.07,14.08,18.21,18.73,19.8c4.65,1.59,9.92-5.54,9.92-5.54
		S37.33,60.34,33.47,58.88z"/>
</g>
</svg>
