<?xml version="1.0" encoding="utf-8"?>
<!-- Generator: Adobe Illustrator 23.0.1, SVG Export Plug-In . SVG Version: 6.00 Build 0)  -->
<svg version="1.1" id="레이어_1" xmlns="http://www.w3.org/2000/svg" xmlns:xlink="http://www.w3.org/1999/xlink" x="0px"
	 y="0px" viewBox="0 0 100 100" style="enable-background:new 0 0 100 100;" xml:space="preserve">
<style type="text/css">
	.st0{fill:#FFFFFF;}
</style>
<g>
	<path class="st0" d="M80.2,81.94H22.81c-1.33,0-2.41-1.08-2.41-2.41v-4.74c0-1.33,1.08-2.41,2.41-2.41h21.3v-4.03H19.57
		c-2.33,0-4.23-1.9-4.23-4.23v-41.1c0-2.33,1.9-4.23,4.23-4.23h60.39c2.33,0,4.23,1.9,4.23,4.23v41.1c0,2.33-1.9,4.23-4.23,4.23
		H56.68v4.03H80.2c1.33,0,2.41,1.08,2.41,2.41v4.74C82.61,80.85,81.53,81.94,80.2,81.94z M22.81,73.87c-0.5,0-0.91,0.41-0.91,0.91
		v4.74c0,0.5,0.41,0.91,0.91,0.91H80.2c0.5,0,0.91-0.41,0.91-0.91v-4.74c0-0.5-0.41-0.91-0.91-0.91H55.18v-7.03h24.78
		c1.5,0,2.73-1.22,2.73-2.73v-41.1c0-1.5-1.22-2.73-2.73-2.73H19.57c-1.5,0-2.73,1.22-2.73,2.73v41.1c0,1.5,1.22,2.73,2.73,2.73
		h26.04v7.03H22.81z M49.77,65.37c-1.02,0-1.86-0.83-1.86-1.86c0-1.02,0.83-1.86,1.86-1.86c1.02,0,1.86,0.83,1.86,1.86
		C51.63,64.54,50.79,65.37,49.77,65.37z M49.77,63.16c-0.2,0-0.36,0.16-0.36,0.36c0,0.2,0.16,0.36,0.36,0.36s0.36-0.16,0.36-0.36
		C50.13,63.32,49.97,63.16,49.77,63.16z M78.82,61.07H20.4V25.74h58.41V61.07z M21.9,59.57h55.41V27.24H21.9V59.57z"/>
</g>
</svg>
