<?xml version="1.0" encoding="utf-8"?>
<!-- Generator: Adobe Illustrator 23.0.0, SVG Export Plug-In . SVG Version: 6.00 Build 0)  -->
<svg version="1.1" id="레이어_1" xmlns="http://www.w3.org/2000/svg" xmlns:xlink="http://www.w3.org/1999/xlink" x="0px"
	 y="0px" viewBox="0 0 200 150" style="enable-background:new 0 0 200 150;" xml:space="preserve">
<style type="text/css">
	.st0{fill:#FFFFFF;}
	.st1{fill:#DB2424;}
</style>
<path class="st0" d="M136.8,81.5l8.6-10.6h-10.1c-3.7,0-7.4,0.8-10,3.2l-0.8,0.9V40.6h-10.2c-2.4,0-4.3,2-4.3,4.4v64.2h10.2
	c2.4,0,4.3-2,4.3-4.4V87.7l8.3,10.2l7,8.7c1.4,1.8,3.3,2.6,5.2,2.6h14.2l-9.2-11.3L136.8,81.5z"/>
<path class="st0" d="M177.6,93.1V70.9H163v25c0,7.9,5.4,13.3,13.3,13.3h11.2c2.4,0,4.4-2,4.4-4.4V97h-10.4
	C179.4,97,177.6,95.3,177.6,93.1z"/>
<g>
	<path class="st0" d="M6.1,99.4v-33c0-0.7,0-1.4,0.1-2.1c0.1-0.8,0.2-1.6,0.4-2.4c0.3-0.7,0.7-1.3,1.1-1.9c0.4-0.6,1-0.9,1.9-0.9
		h5.5c-1.2,2-1.8,4.5-1.8,7.3v6.8h15.4c1.2,0,2.4,0.3,3.5,0.9c1.2,0.6,2.2,1.2,3,1.9c0.8,1,1.5,2.1,2,3.2c0.5,1.1,0.8,2.3,0.8,3.7
		v16.6c0,1.3-0.3,2.6-0.8,3.7c-0.5,1.1-1.2,2.1-2,2.9c-0.8,0.8-1.9,1.5-3,2c-1.2,0.5-2.4,0.8-3.5,0.8H15.7c-1.3,0-2.6-0.3-3.8-0.8
		c-1.2-0.5-2.2-1.2-3-2c-0.8-0.8-1.5-1.8-2-2.9C6.3,102,6.1,100.7,6.1,99.4z M13.4,80.5v17.7c0,1,0.3,1.9,1,2.5c0.7,0.7,1.5,1,2.5,1
		h10.3c1,0,1.8-0.3,2.5-1c0.7-0.7,1-1.5,1-2.5V84c0-1-0.3-1.8-1-2.5c-0.7-0.7-1.5-1-2.5-1H13.4z"/>
	<path class="st0" d="M52.4,65.3c0,0.7-0.3,1.2-0.8,1.6c-0.5,0.4-1.1,0.6-1.8,0.6h-4.8v-4.8c0-0.5,0.2-1,0.6-1.5
		c0.4-0.5,1-0.8,1.6-0.8h1.3c0.7,0,1.3,0,2-0.1c0.7-0.1,1.3-0.2,1.8-0.4V65.3z M45.1,75.7c0-0.7,0.2-1.3,0.6-1.8
		c0.4-0.5,1-0.8,1.6-0.8h5v33.3c0,0.7-0.3,1.2-0.8,1.6c-0.5,0.4-1.1,0.6-1.8,0.6h-4.8V75.7z"/>
	<path class="st0" d="M84.1,101.7c2.5,0,4.9-0.4,7.1-1.3v5.8c0,0.5-0.3,1-0.9,1.4c-0.6,0.4-1.2,0.7-1.9,0.9
		c-0.8,0.2-1.6,0.3-2.4,0.3c-0.8,0-1.4,0-1.9,0H64.5c-2,0-3.4-0.5-4.2-1.6c-0.8-1.1-1.1-2.2-1.1-3.4c0-0.8,0.3-1.6,0.8-2.4
		c0.5-0.8,1.2-1.6,2-2.6l18.2-18.2H62.2c-0.7,0-1.2-0.3-1.6-0.8c-0.4-0.5-0.6-1.1-0.6-1.8v-4.8h26c1.3,0,2.5,0.4,3.4,1.3
		c0.9,0.8,1.4,2,1.4,3.5c0,0.8-0.2,1.5-0.5,2c-0.3,0.5-0.8,1-1.3,1.5L69,101.7H84.1z"/>
</g>
<g>
	<path class="st1" d="M194.3,63l0-9.7l-0.9,1c0,0-2.8,2.8-10.6,2.8h-5.2H163h-17.4c-5.9,0-8.6,2.4-10.7,5l-8.5,10.5
		c0,0,4-3.8,10-3.8h46.4c5.1,0,8.6-1,10.4-3C194.5,64.4,194.3,63,194.3,63z"/>
	<path class="st0" d="M177.6,40.6h-10.2c-2.4,0-4.4,2-4.4,4.3v12.2h14.6V40.6z"/>
</g>
</svg>
