<?xml version="1.0" encoding="utf-8"?>
<!-- Generator: Adobe Illustrator 23.0.1, SVG Export Plug-In . SVG Version: 6.00 Build 0)  -->
<svg version="1.1" id="레이어_1" xmlns="http://www.w3.org/2000/svg" xmlns:xlink="http://www.w3.org/1999/xlink" x="0px"
	 y="0px" viewBox="0 0 200 150" style="enable-background:new 0 0 200 150;" xml:space="preserve">
<style type="text/css">
	.st0{fill:#FFFFFF;}
</style>
<g>
	<g>
		<path class="st0" d="M135.7,81.43l8.56-10.54h-10.02c-3.71,0-7.35,0.85-9.99,3.17l-0.76,0.93V40.73h-10.18
			c-2.38,0-4.33,1.94-4.33,4.34V109h10.18c2.39,0,4.33-1.95,4.33-4.34V87.65l8.24,10.12l7.01,8.63c1.41,1.77,3.27,2.6,5.18,2.6h14.2
			l-9.18-11.26L135.7,81.43z M176.31,93.03V70.89h-14.52v24.86c0,7.84,5.41,13.25,13.26,13.25h11.17c2.4,0,4.35-1.95,4.35-4.34
			v-7.73H180.2C178.06,96.93,176.31,95.18,176.31,93.03z M192.98,63.08l-0.01-9.64l-0.9,0.95c-0.02,0.03-2.75,2.81-10.58,2.81h-5.19
			V40.73h-10.18c-2.4,0-4.34,1.94-4.34,4.33V57.2H144.5c-5.84,0-8.58,2.38-10.69,4.95l-8.5,10.47c0,0,4.02-3.8,9.91-3.8h46.27
			c5.07,0,8.54-1,10.33-2.95C193.1,64.47,192.99,63.09,192.98,63.08z"/>
	</g>
	<g>
		<path class="st0" d="M5.43,99.3V66.38c0-0.67,0.04-1.38,0.13-2.14c0.08-0.75,0.21-1.55,0.38-2.39c0.33-0.67,0.71-1.3,1.13-1.88
			c0.42-0.58,1.04-0.88,1.88-0.88h5.53c-1.17,2.01-1.76,4.44-1.76,7.29v6.78h15.33c1.17,0,2.34,0.29,3.52,0.88
			c1.17,0.59,2.18,1.22,3.02,1.88c0.84,1,1.51,2.05,2.01,3.14c0.5,1.09,0.75,2.3,0.75,3.64V99.3c0,1.34-0.25,2.56-0.75,3.64
			c-0.5,1.09-1.17,2.05-2.01,2.89c-0.84,0.84-1.85,1.51-3.02,2.01c-1.17,0.5-2.35,0.75-3.52,0.75H14.98c-1.34,0-2.6-0.25-3.77-0.75
			c-1.17-0.5-2.18-1.17-3.02-2.01c-0.84-0.84-1.51-1.8-2.01-2.89C5.69,101.85,5.43,100.64,5.43,99.3z M12.72,80.45v17.59
			c0,1.01,0.33,1.85,1.01,2.51c0.67,0.67,1.51,1,2.51,1h10.3c1,0,1.84-0.33,2.51-1c0.67-0.67,1.01-1.51,1.01-2.51V83.97
			c0-1.01-0.34-1.84-1.01-2.51c-0.67-0.67-1.51-1-2.51-1H12.72z"/>
		<path class="st0" d="M51.61,65.37c0,0.67-0.25,1.22-0.75,1.63c-0.5,0.42-1.09,0.63-1.76,0.63h-4.77v-4.77
			c0-0.5,0.21-1.01,0.63-1.51c0.42-0.5,0.96-0.75,1.63-0.75h1.26c0.67,0,1.34-0.04,2.01-0.13c0.67-0.08,1.26-0.21,1.76-0.38V65.37z
			 M44.32,75.68c0-0.67,0.21-1.26,0.63-1.76c0.42-0.5,0.96-0.75,1.63-0.75h5.03v33.17c0,0.67-0.25,1.22-0.75,1.63
			c-0.5,0.42-1.09,0.63-1.76,0.63h-4.77V75.68z"/>
		<path class="st0" d="M83.21,101.56c2.51,0,4.86-0.42,7.04-1.26v5.78c0,0.5-0.29,0.97-0.88,1.38c-0.59,0.42-1.22,0.71-1.88,0.88
			c-0.84,0.17-1.63,0.25-2.39,0.25c-0.75,0-1.38,0-1.88,0h-19.6c-2.01,0-3.39-0.54-4.15-1.63c-0.75-1.09-1.13-2.22-1.13-3.39
			c0-0.84,0.25-1.63,0.75-2.39c0.5-0.75,1.17-1.63,2.01-2.64l18.09-18.09H61.35c-0.67,0-1.22-0.25-1.63-0.75
			c-0.42-0.5-0.63-1.09-0.63-1.76v-4.77h25.88c1.34,0,2.47,0.42,3.39,1.26c0.92,0.84,1.38,2.01,1.38,3.52c0,0.84-0.17,1.51-0.5,2.01
			c-0.34,0.5-0.75,1.01-1.26,1.51l-19.85,20.1H83.21z"/>
	</g>
</g>
</svg>
