<?xml version="1.0" encoding="utf-8"?>
<!-- Generator: Adobe Illustrator 23.0.0, SVG Export Plug-In . SVG Version: 6.00 Build 0)  -->
<svg version="1.1" id="레이어_1" xmlns="http://www.w3.org/2000/svg" xmlns:xlink="http://www.w3.org/1999/xlink" x="0px"
	 y="0px" viewBox="0 0 94 94" style="enable-background:new 0 0 94 94;" xml:space="preserve">
<style type="text/css">
	.st0{fill:#9EBF57;}
	.st1{fill:#FFFFFF;}
	.st2{fill:#F7DDCE;}
	.st3{fill:#F3D0BD;}
	.st4{fill:#202121;}
	.st5{fill:#FFFFFF;stroke:#FFFFFF;stroke-width:0.25;stroke-miterlimit:10;}
	.st6{font-family:'YDIYGO320';}
	.st7{font-size:17px;}
</style>
<path class="st0" d="M67.3,92.3H2.4V27.5C2.4,13.4,13.9,2,27.9,2h39.4c14.1,0,25.5,11.4,25.5,25.5v39.4
	C92.8,80.9,81.4,92.3,67.3,92.3z"/>
<path class="st1" d="M5.9,60.8V29.7c0-13.4,10.9-24.3,24.3-24.3h34.9c13.4,0,24.3,10.9,24.3,24.3v31.1L5.9,60.8z"/>
<g>
	<rect x="23.5" y="28.3" class="st0" width="16.9" height="21.4"/>
	<path class="st2" d="M40.4,30.6c0,0,10.1-7.9,15-15.4c0,0,5.6-1.1,4.1,4.9s-3.8,6.8-3.8,6.8s10.1-1.1,10.5,1.5
		c0.4,2.6,0.8,7.7,0.2,11.2c-0.5,2.7-6.2,8.7-7.7,10.2c-1.5,1.5-11.6,0-11.6,0L40.4,46C40.4,46,40.4,30.6,40.4,30.6z"/>
	<path class="st3" d="M40.4,30.8c0,0,1.9,7.6,7.5,8.2c4.3,0.4,13.4-0.4,17.1-0.6c0.9,0,1.5,0.9,1.2,1.7l-4,9.3
		c-0.2,0.5-0.8,0.9-1.4,0.9H48.4c-0.3,0-0.7-0.1-0.9-0.2l-5.5-3l-1.6-0.8L40.4,30.8L40.4,30.8z"/>
	<g>
		<rect x="29.8" y="28.3" class="st1" width="10.7" height="21.4"/>
		<path class="st0" d="M40.8,50H29.6V28h11.3V50z M30.1,49.5h10.2V28.6H30.1V49.5z"/>
	</g>
	<path class="st4" d="M37,32.8c0,1.1-0.9,1.9-1.9,1.9c-1.1,0-1.9-0.9-1.9-1.9c0-1.1,0.9-1.9,1.9-1.9S37,31.7,37,32.8z"/>
</g>
<text transform="matrix(1 0 0 1 14.1448 79.9759)" class="st5 st6 st7">견적문의</text>
</svg>
