<?xml version="1.0" encoding="utf-8"?>
<!-- Generator: Adobe Illustrator 23.0.0, SVG Export Plug-In . SVG Version: 6.00 Build 0)  -->
<svg version="1.1" id="레이어_1" xmlns="http://www.w3.org/2000/svg" xmlns:xlink="http://www.w3.org/1999/xlink" x="0px"
	 y="0px" viewBox="0 0 94 32.17" style="enable-background:new 0 0 94 32.17;" xml:space="preserve">
<style type="text/css">
	.st0{fill:#515050;}
	.st1{fill:#FFFFFF;stroke:#FFFFFF;stroke-width:0.25;stroke-miterlimit:10;}
</style>
<path class="st0" d="M84.35,31.09H9.65c-4.3,0-7.83-3.52-7.83-7.83V8.78c0-4.3,3.52-7.83,7.83-7.83h74.7c4.3,0,7.83,3.52,7.83,7.83
	v14.48C92.18,27.56,88.66,31.09,84.35,31.09z"/>
<g>
	<g>
		<path class="st1" d="M36.3,11.59H33V10.4h8.03v1.19h-3.31v9.65H36.3V11.59z"/>
		<path class="st1" d="M37.98,21.51h-1.95v-9.65h-3.3v-1.73h8.56v1.73h-3.31V21.51z M36.56,20.97h0.88v-9.65h3.31v-0.65h-7.49v0.65
			h3.3V20.97z"/>
	</g>
	<g>
		<path class="st1" d="M51.7,15.71c0,3.73-2.27,5.71-5.03,5.71c-2.86,0-4.87-2.22-4.87-5.5c0-3.44,2.14-5.69,5.03-5.69
			C49.79,10.22,51.7,12.49,51.7,15.71z M43.29,15.88c0,2.32,1.25,4.39,3.46,4.39c2.22,0,3.47-2.04,3.47-4.5
			c0-2.16-1.13-4.41-3.46-4.41C44.45,11.37,43.29,13.5,43.29,15.88z"/>
		<path class="st1" d="M46.67,21.69c-3.03,0-5.14-2.37-5.14-5.77c0-3.51,2.18-5.96,5.3-5.96c3.08,0,5.14,2.31,5.14,5.75
			C51.97,19.84,49.31,21.69,46.67,21.69z M46.83,10.49c-2.81,0-4.77,2.23-4.77,5.43c0,3.13,1.85,5.23,4.61,5.23
			c2.9,0,4.77-2.14,4.77-5.44C51.44,12.59,49.59,10.49,46.83,10.49z M46.75,20.54c-2.45,0-3.73-2.34-3.73-4.66
			c0-2.38,1.16-4.79,3.74-4.79c2.56,0,3.73,2.42,3.73,4.68C50.49,18.58,48.95,20.54,46.75,20.54z M46.77,11.63
			c-2.21,0-3.21,2.14-3.21,4.25c0,1.99,1,4.12,3.19,4.12c2.21,0,3.21-2.13,3.21-4.24C49.96,13.78,48.96,11.63,46.77,11.63z"/>
	</g>
	<g>
		<path class="st1" d="M54.17,10.53c0.68-0.11,1.56-0.21,2.69-0.21c1.38,0,2.4,0.32,3.04,0.9c0.6,0.52,0.95,1.3,0.95,2.27
			c0,0.98-0.29,1.75-0.84,2.32c-0.74,0.79-1.95,1.19-3.31,1.19c-0.42,0-0.8-0.02-1.13-0.1v4.34h-1.4V10.53z M55.57,15.76
			c0.31,0.08,0.69,0.11,1.16,0.11c1.69,0,2.72-0.82,2.72-2.32c0-1.43-1.01-2.12-2.56-2.12c-0.61,0-1.08,0.05-1.32,0.11V15.76z"/>
		<path class="st1" d="M55.83,21.51H53.9V10.3l0.22-0.04c0.84-0.14,1.76-0.21,2.73-0.21c1.42,0,2.5,0.33,3.22,0.97
			c0.67,0.58,1.04,1.46,1.04,2.47c0,1.04-0.31,1.88-0.91,2.5c-0.77,0.82-2.02,1.27-3.51,1.27c-0.28,0-0.58-0.01-0.86-0.04V21.51z
			 M54.43,20.97h0.86v-4.42l0.33,0.08c0.31,0.08,0.69,0.09,1.06,0.09c1.34,0,2.45-0.39,3.12-1.1c0.51-0.52,0.76-1.24,0.76-2.13
			c0-0.85-0.3-1.59-0.86-2.07c-0.62-0.56-1.58-0.84-2.86-0.84c-0.85,0-1.66,0.06-2.42,0.17V20.97z M56.72,16.14
			c-0.52,0-0.91-0.04-1.23-0.12l-0.2-0.05v-4.63l0.2-0.05c0.29-0.08,0.79-0.12,1.39-0.12c1.8,0,2.83,0.87,2.83,2.39
			C59.71,15.17,58.59,16.14,56.72,16.14z M55.83,15.54c0.24,0.04,0.53,0.06,0.89,0.06c0.91,0,2.45-0.27,2.45-2.05
			c0-1.53-1.25-1.85-2.29-1.85c-0.47,0-0.82,0.03-1.05,0.06V15.54z"/>
	</g>
</g>
</svg>
