<?xml version="1.0" encoding="utf-8"?>
<!-- Generator: Adobe Illustrator 23.0.0, SVG Export Plug-In . SVG Version: 6.00 Build 0)  -->
<svg version="1.1" id="레이어_1" xmlns="http://www.w3.org/2000/svg" xmlns:xlink="http://www.w3.org/1999/xlink" x="0px"
	 y="0px" viewBox="0 0 94 94" style="enable-background:new 0 0 94 94;" xml:space="preserve">
<style type="text/css">
	.st0{fill:#9EBF57;}
	.st1{fill:#FFFFFF;}
	.st2{fill:#FFFFFF;stroke:#FFFFFF;stroke-width:0.25;stroke-miterlimit:10;}
	.st3{fill:#F7DDCE;}
	.st4{fill:#F3D0BD;}
	.st5{fill:#202121;}
</style>
<path class="st0" d="M67.3,92.31H2.44V27.45c0-14.08,11.42-25.5,25.5-25.5H67.3c14.08,0,25.5,11.42,25.5,25.5V66.8
	C92.8,80.89,81.38,92.31,67.3,92.31z"/>
<path class="st1" d="M5.92,60.77V29.68c0-13.4,10.86-24.25,24.25-24.25h34.9c13.4,0,24.25,10.86,24.25,24.25V60.8L5.92,60.77z"/>
<g>
	<path class="st2" d="M25.2,75.25c-0.29-0.12-0.69-0.32-1.18-0.61c-0.5-0.29-0.97-0.64-1.43-1.03c-0.35-0.32-0.66-0.64-0.95-0.97
		c-0.28-0.33-0.51-0.68-0.68-1.04c-0.15,0.39-0.36,0.77-0.63,1.15c-0.28,0.38-0.62,0.77-1.02,1.17c-0.44,0.42-0.91,0.79-1.4,1.1
		c-0.5,0.32-0.87,0.54-1.13,0.67l-0.88-0.91c0.37-0.15,0.82-0.4,1.33-0.74c0.52-0.34,1-0.72,1.44-1.16
		c0.41-0.41,0.78-0.93,1.13-1.55c0.35-0.62,0.52-1.31,0.52-2.06v-1.31h1.3v1.31c0,0.7,0.15,1.32,0.44,1.84
		c0.29,0.53,0.64,0.98,1.03,1.35c0.5,0.47,1.01,0.86,1.54,1.18c0.53,0.32,0.97,0.54,1.31,0.67L25.2,75.25z M19.04,82.75v-3.67h8.9
		v-1.67h-8.9v-1h10.2v3.66h-8.9v1.67h9.32v1H19.04z M28.04,75.67v-4.17h-3.48v-1.07h3.48V67.5h1.25v8.17H28.04z"/>
	<path class="st2" d="M40.87,80.16c-0.27-0.15-0.66-0.42-1.16-0.8c-0.5-0.38-0.97-0.82-1.41-1.32c-0.34-0.41-0.63-0.82-0.87-1.22
		s-0.42-0.77-0.55-1.1c-0.1,0.34-0.28,0.74-0.55,1.2c-0.26,0.46-0.6,0.92-1,1.36c-0.41,0.46-0.85,0.88-1.33,1.27
		c-0.48,0.39-0.89,0.68-1.24,0.87l-0.96-0.93c0.33-0.18,0.79-0.49,1.4-0.93c0.61-0.44,1.14-0.96,1.6-1.56
		c0.46-0.58,0.81-1.21,1.05-1.89c0.24-0.67,0.35-1.35,0.35-2.02V72.6h-3.58v-1.12h8.49v1.12h-3.56v0.49c0,0.75,0.14,1.47,0.43,2.17
		c0.29,0.7,0.67,1.32,1.16,1.86c0.5,0.56,0.96,1,1.38,1.31c0.43,0.32,0.8,0.56,1.13,0.72L40.87,80.16z M34.46,69.51v-1.1h4.85v1.1
		H34.46z M43.89,82.93V67.5h1.27v15.43H43.89z"/>
	<path class="st2" d="M55.44,78.6v4.33h-1.28V78.6h-6.79v-1.09h14.86v1.09H55.44z M48.72,70.9v-1.09h12.14v1.09H48.72z M58.43,75.7
		c-0.93,0.43-2.16,0.65-3.66,0.65c-1.51,0-2.73-0.22-3.66-0.65c-0.93-0.43-1.4-0.98-1.4-1.65c0-0.67,0.47-1.21,1.4-1.64
		c0.93-0.43,2.16-0.64,3.66-0.64c1.51,0,2.73,0.21,3.66,0.64c0.93,0.43,1.4,0.97,1.4,1.64C59.83,74.72,59.36,75.27,58.43,75.7z
		 M57.3,73.14c-0.71-0.21-1.55-0.32-2.53-0.32c-0.99,0-1.84,0.1-2.56,0.32c-0.71,0.21-1.07,0.52-1.07,0.93
		c0,0.37,0.36,0.67,1.07,0.89c0.71,0.22,1.57,0.33,2.56,0.33c0.98,0,1.82-0.11,2.53-0.33c0.71-0.22,1.06-0.52,1.06-0.89
		C58.36,73.66,58.01,73.35,57.3,73.14z M51.61,68.65v-1.09h6.35v1.09H51.61z"/>
	<path class="st2" d="M71.3,72.68c-0.36,1.25-0.91,2.37-1.65,3.38c-0.72,0.99-1.47,1.81-2.24,2.46c-0.77,0.65-1.58,1.2-2.42,1.66
		l-0.96-0.79c0.74-0.39,1.52-0.89,2.34-1.53c0.82-0.63,1.52-1.36,2.1-2.17c0.66-0.94,1.15-1.89,1.46-2.85
		c0.31-0.96,0.5-1.77,0.58-2.43h-5.59v-1.07h7.02C71.87,70.32,71.66,71.43,71.3,72.68z M75.58,82.93V67.5h1.27v15.43H75.58z"/>
</g>
<g>
	<rect x="23.46" y="28.33" class="st0" width="16.9" height="21.4"/>
	<path class="st3" d="M40.36,30.58c0,0,10.14-7.88,15.02-15.39c0,0,5.63-1.13,4.13,4.88c-1.5,6.01-3.75,6.76-3.75,6.76
		s10.14-1.13,10.51,1.5c0.38,2.63,0.82,7.66,0.17,11.17c-0.5,2.68-6.17,8.73-7.68,10.23c-1.5,1.5-11.62,0-11.62,0l-6.78-3.75V30.58z
		"/>
	<path class="st4" d="M40.36,30.83c0,0,1.91,7.63,7.53,8.2c4.28,0.43,13.37-0.43,17.13-0.56c0.89-0.03,1.51,0.86,1.19,1.69
		l-4.05,9.34c-0.24,0.55-0.78,0.9-1.38,0.9h-12.4c-0.33,0-0.65-0.08-0.93-0.24l-5.5-3.01l-1.6-0.8V30.83z"/>
	<g>
		<rect x="29.84" y="28.33" class="st1" width="10.72" height="21.4"/>
		<path class="st0" d="M40.84,50H29.57V28.05h11.27V50z M30.12,49.45h10.17V28.6H30.12V49.45z"/>
	</g>
	<path class="st5" d="M37.02,32.75c0,1.06-0.86,1.92-1.92,1.92c-1.06,0-1.92-0.86-1.92-1.92c0-1.06,0.86-1.92,1.92-1.92
		C36.16,30.83,37.02,31.69,37.02,32.75z"/>
</g>
</svg>
