<?xml version="1.0" encoding="utf-8"?>
<!-- Generator: Adobe Illustrator 23.0.0, SVG Export Plug-In . SVG Version: 6.00 Build 0)  -->
<svg version="1.1" id="레이어_1" xmlns="http://www.w3.org/2000/svg" xmlns:xlink="http://www.w3.org/1999/xlink" x="0px"
	 y="0px" viewBox="0 0 94 94" style="enable-background:new 0 0 94 94;" xml:space="preserve">
<style type="text/css">
	.st0{fill:#9EBF57;}
	.st1{fill:#FFFFFF;}
	.st2{fill:#FFFFFF;stroke:#FFFFFF;stroke-width:0.25;stroke-miterlimit:10;}
	.st3{fill:#F7DDCE;}
	.st4{fill:#F3D0BD;}
	.st5{fill:#202121;}
	.st6{fill:#5FC1C2;}
	.st7{fill:#2F77AE;}
	.st8{fill:#294E9D;}
</style>
<path class="st0" d="M67.3,92.31H2.44V27.45c0-14.08,11.42-25.5,25.5-25.5H67.3c14.08,0,25.5,11.42,25.5,25.5V66.8
	C92.8,80.89,81.38,92.31,67.3,92.31z"/>
<path class="st1" d="M5.92,60.77V29.68c0-13.4,10.86-24.25,24.25-24.25h34.9c13.4,0,24.25,10.86,24.25,24.25V60.8L5.92,60.77z"/>
<g>
	<path class="st2" d="M25.2,75.25c-0.29-0.12-0.69-0.32-1.18-0.61c-0.5-0.29-0.97-0.64-1.43-1.03c-0.35-0.32-0.66-0.64-0.95-0.97
		c-0.28-0.33-0.51-0.68-0.68-1.04c-0.15,0.39-0.36,0.77-0.63,1.15c-0.28,0.38-0.62,0.77-1.02,1.17c-0.44,0.42-0.91,0.79-1.4,1.1
		c-0.5,0.32-0.87,0.54-1.13,0.67l-0.88-0.91c0.37-0.15,0.82-0.4,1.33-0.74c0.52-0.34,1-0.72,1.44-1.16
		c0.41-0.41,0.78-0.93,1.13-1.55c0.35-0.62,0.52-1.31,0.52-2.06v-1.31h1.3v1.31c0,0.7,0.15,1.32,0.44,1.84
		c0.29,0.53,0.64,0.98,1.03,1.35c0.5,0.47,1.01,0.86,1.54,1.18c0.53,0.32,0.97,0.54,1.31,0.67L25.2,75.25z M19.04,82.75v-3.67h8.9
		v-1.67h-8.9v-1h10.2v3.66h-8.9v1.67h9.32v1H19.04z M28.04,75.67v-4.17h-3.48v-1.07h3.48V67.5h1.25v8.17H28.04z"/>
	<path class="st2" d="M40.87,80.16c-0.27-0.15-0.66-0.42-1.16-0.8c-0.5-0.38-0.97-0.82-1.41-1.32c-0.34-0.41-0.63-0.82-0.87-1.22
		s-0.42-0.77-0.55-1.1c-0.1,0.34-0.28,0.74-0.55,1.2c-0.26,0.46-0.6,0.92-1,1.36c-0.41,0.46-0.85,0.88-1.33,1.27
		c-0.48,0.39-0.89,0.68-1.24,0.87l-0.96-0.93c0.33-0.18,0.79-0.49,1.4-0.93c0.61-0.44,1.14-0.96,1.6-1.56
		c0.46-0.58,0.81-1.21,1.05-1.89c0.24-0.67,0.35-1.35,0.35-2.02V72.6h-3.58v-1.12h8.49v1.12h-3.56v0.49c0,0.75,0.14,1.47,0.43,2.17
		c0.29,0.7,0.67,1.32,1.16,1.86c0.5,0.56,0.96,1,1.38,1.31c0.43,0.32,0.8,0.56,1.13,0.72L40.87,80.16z M34.46,69.51v-1.1h4.85v1.1
		H34.46z M43.89,82.93V67.5h1.27v15.43H43.89z"/>
	<path class="st2" d="M55.44,78.6v4.33h-1.28V78.6h-6.79v-1.09h14.86v1.09H55.44z M48.72,70.9v-1.09h12.14v1.09H48.72z M58.43,75.7
		c-0.93,0.43-2.16,0.65-3.66,0.65c-1.51,0-2.73-0.22-3.66-0.65c-0.93-0.43-1.4-0.98-1.4-1.65c0-0.67,0.47-1.21,1.4-1.64
		c0.93-0.43,2.16-0.64,3.66-0.64c1.51,0,2.73,0.21,3.66,0.64c0.93,0.43,1.4,0.97,1.4,1.64C59.83,74.72,59.36,75.27,58.43,75.7z
		 M57.3,73.14c-0.71-0.21-1.55-0.32-2.53-0.32c-0.99,0-1.84,0.1-2.56,0.32c-0.71,0.21-1.07,0.52-1.07,0.93
		c0,0.37,0.36,0.67,1.07,0.89c0.71,0.22,1.57,0.33,2.56,0.33c0.98,0,1.82-0.11,2.53-0.33c0.71-0.22,1.06-0.52,1.06-0.89
		C58.36,73.66,58.01,73.35,57.3,73.14z M51.61,68.65v-1.09h6.35v1.09H51.61z"/>
	<path class="st2" d="M71.3,72.68c-0.36,1.25-0.91,2.37-1.65,3.38c-0.72,0.99-1.47,1.81-2.24,2.46c-0.77,0.65-1.58,1.2-2.42,1.66
		l-0.96-0.79c0.74-0.39,1.52-0.89,2.34-1.53c0.82-0.63,1.52-1.36,2.1-2.17c0.66-0.94,1.15-1.89,1.46-2.85
		c0.31-0.96,0.5-1.77,0.58-2.43h-5.59v-1.07h7.02C71.87,70.32,71.66,71.43,71.3,72.68z M75.58,82.93V67.5h1.27v15.43H75.58z"/>
</g>
<g>
	<rect x="23.46" y="28.33" class="st0" width="16.9" height="21.4"/>
	<path class="st3" d="M40.36,30.58c0,0,10.14-7.88,15.02-15.39c0,0,5.63-1.13,4.13,4.88c-1.5,6.01-3.75,6.76-3.75,6.76
		s10.14-1.13,10.51,1.5c0.38,2.63,0.82,7.66,0.17,11.17c-0.5,2.68-6.17,8.73-7.68,10.23c-1.5,1.5-11.62,0-11.62,0l-6.78-3.75V30.58z
		"/>
	<path class="st4" d="M40.36,30.83c0,0,1.91,7.63,7.53,8.2c4.28,0.43,13.37-0.43,17.13-0.56c0.89-0.03,1.51,0.86,1.19,1.69
		l-4.05,9.34c-0.24,0.55-0.78,0.9-1.38,0.9h-12.4c-0.33,0-0.65-0.08-0.93-0.24l-5.5-3.01l-1.6-0.8V30.83z"/>
	<g>
		<rect x="29.84" y="28.33" class="st1" width="10.72" height="21.4"/>
		<path class="st0" d="M40.84,50H29.57V28.05h11.27V50z M30.12,49.45h10.17V28.6H30.12V49.45z"/>
	</g>
	<path class="st5" d="M37.02,32.75c0,1.06-0.86,1.92-1.92,1.92c-1.06,0-1.92-0.86-1.92-1.92c0-1.06,0.86-1.92,1.92-1.92
		C36.16,30.83,37.02,31.69,37.02,32.75z"/>
</g>
<path class="st1" d="M5.92,60.19V29.1c0-13.4,10.86-24.25,24.25-24.25h34.9c13.4,0,24.25,10.86,24.25,24.25v31.12L5.92,60.19z"/>
<path class="st6" d="M67.3,92.31H2.44V27.45c0-14.09,11.42-25.5,25.5-25.5H67.3c14.09,0,25.5,11.42,25.5,25.5V66.8
	C92.8,80.89,81.38,92.31,67.3,92.31z"/>
<path class="st1" d="M5.92,60.77V29.68c0-13.4,10.86-24.25,24.25-24.25h34.9c13.4,0,24.25,10.86,24.25,24.25V60.8L5.92,60.77z"/>
<g>
	<path class="st2" d="M23.61,72.68c-0.35,1.25-0.89,2.37-1.62,3.38c-0.71,0.99-1.44,1.81-2.21,2.46c-0.76,0.65-1.55,1.2-2.37,1.66
		l-0.96-0.79c0.74-0.39,1.51-0.89,2.32-1.53c0.8-0.63,1.49-1.36,2.07-2.17c0.65-0.94,1.13-1.88,1.44-2.85
		c0.3-0.96,0.49-1.77,0.56-2.43h-5.48v-1.07h6.89C24.17,70.32,23.96,71.43,23.61,72.68z M28.5,74.09h2.39v1.14H28.5v7.7h-1.24V67.5
		h1.24V74.09z"/>
	<path class="st2" d="M39.07,69c0.75,0.68,1.13,1.53,1.13,2.56s-0.38,1.88-1.13,2.55c-0.75,0.67-1.67,1.01-2.76,1.01
		c-1.07,0-1.99-0.34-2.75-1.01c-0.76-0.67-1.14-1.52-1.14-2.55c0-1.04,0.38-1.9,1.13-2.57c0.75-0.67,1.67-1.01,2.76-1.01
		C37.4,67.99,38.32,68.33,39.07,69z M38.2,69.86c-0.47-0.46-1.1-0.69-1.88-0.69c-0.76,0-1.38,0.23-1.86,0.7
		c-0.48,0.47-0.71,1.03-0.71,1.68c0,0.66,0.24,1.22,0.71,1.69c0.48,0.47,1.1,0.71,1.86,0.71c0.78,0,1.41-0.24,1.88-0.71
		c0.47-0.47,0.71-1.04,0.71-1.69C38.9,70.88,38.67,70.32,38.2,69.86z M34.69,82.75v-6.14h1.26v1.86h7.78v-1.86h1.24v6.14H34.69z
		 M43.73,79.53h-7.78v2.16h7.78V79.53z M43.73,75.77V67.5h1.23v8.28H43.73z"/>
	<path class="st2" d="M56.7,79.84c-0.32-0.21-0.72-0.5-1.2-0.87c-0.48-0.37-0.94-0.83-1.38-1.38c-0.44-0.57-0.8-1.13-1.06-1.67
		c-0.27-0.54-0.45-0.97-0.55-1.3c-0.08,0.33-0.24,0.76-0.5,1.31c-0.25,0.54-0.62,1.14-1.11,1.8c-0.38,0.5-0.8,0.97-1.27,1.39
		c-0.47,0.43-0.9,0.77-1.29,1.04l-1-0.88c0.55-0.34,1.12-0.79,1.71-1.36c0.59-0.57,1.09-1.19,1.51-1.87
		c0.44-0.71,0.77-1.51,0.98-2.38c0.21-0.88,0.32-1.74,0.32-2.6v-2.68h1.28v2.68c0,0.85,0.1,1.7,0.31,2.54
		c0.21,0.84,0.57,1.65,1.08,2.42c0.43,0.67,0.93,1.24,1.5,1.73c0.57,0.49,1.08,0.86,1.52,1.11L56.7,79.84z M59.37,82.93v-8.94h-3.64
		v-1.1h3.64V67.5h1.24v15.43H59.37z"/>
	<path class="st2" d="M73.4,78.05v4.87h-1.25v-4.87H68v4.7h-1.23v-4.7h-3.98v-1.09H77.4v1.09H73.4z M64.86,75.3v-4.12h9.01V69.2
		h-9.06v-1.09h10.29v4.14h-9.01v1.96h9.53v1.09H64.86z"/>
</g>
<g>
	<g>
		<path class="st6" d="M60.37,31.91c-0.46,0-0.82-0.37-0.82-0.82v-13.2h-25.1v10.08c0,0.46-0.37,0.82-0.82,0.82
			c-0.46,0-0.82-0.37-0.82-0.82V17.06c0-0.46,0.37-0.82,0.82-0.82h26.74c0.46,0,0.82,0.37,0.82,0.82v14.02
			C61.19,31.54,60.82,31.91,60.37,31.91z"/>
		<path class="st6" d="M54.92,21h-16.1c-0.46,0-0.82-0.37-0.82-0.82c0-0.46,0.37-0.82,0.82-0.82h16.1c0.46,0,0.82,0.37,0.82,0.82
			C55.74,20.63,55.37,21,54.92,21z"/>
		<path class="st6" d="M54.92,24.9h-16.1c-0.46,0-0.82-0.37-0.82-0.82c0-0.46,0.37-0.82,0.82-0.82h16.1c0.46,0,0.82,0.37,0.82,0.82
			C55.74,24.53,55.37,24.9,54.92,24.9z"/>
		<g>
			<g>
				<path class="st6" d="M47.01,31.08l-3.78-3.12H30.51v21.55h32.98V31.08H47.01z M50.54,39.84c-0.16,0.17-0.46,0.26-0.9,0.26H49.2
					v2.1c0,0.19,0.15,0.34,0.34,0.34h0.9v0.67c0,0.21-0.17,0.38-0.38,0.38h-0.97c-0.68,0-1.15-0.47-1.15-1.15V40.1h-1.38l-0.89,1.09
					l1.15,1.42l0.8,0.98h-1.23c-0.17,0-0.33-0.07-0.45-0.23l-0.61-0.75l-0.72-0.88v1.48c0,0.21-0.17,0.38-0.38,0.38h-0.88v-5.55
					c0-0.21,0.17-0.38,0.38-0.38h0.88v2.98l0.17-0.22c-0.01,0.01-0.01,0.01-0.01,0.01l0.12-0.15v0l0.62-0.76
					c0.18-0.22,0.42-0.43,0.93-0.43h1.5v-1.05c0-0.21,0.17-0.38,0.38-0.38h0.88v1.43h0.45c0.68,0,0.92-0.24,0.92-0.24l0.08-0.08
					l0,0.84C50.64,39.6,50.65,39.72,50.54,39.84z"/>
			</g>
		</g>
	</g>
</g>
<path class="st1" d="M5.92,60.07V28.98c0-13.4,10.86-24.25,24.25-24.25h34.9c13.4,0,24.25,10.86,24.25,24.25V60.1L5.92,60.07z"/>
<path class="st7" d="M67.3,92.18H2.44V27.32c0-14.09,11.42-25.5,25.5-25.5H67.3c14.09,0,25.5,11.42,25.5,25.5v39.35
	C92.8,80.76,81.38,92.18,67.3,92.18z"/>
<path class="st1" d="M5.92,60.64V29.55c0-13.4,10.86-24.25,24.25-24.25h34.9c13.4,0,24.25,10.86,24.25,24.25v31.12L5.92,60.64z"/>
<g>
	<path class="st2" d="M24.82,79.53c-0.28-0.17-0.63-0.43-1.06-0.76c-0.42-0.34-0.86-0.79-1.32-1.37c-0.42-0.54-0.75-1.07-0.99-1.58
		c-0.23-0.51-0.39-0.9-0.47-1.17c-0.07,0.25-0.21,0.63-0.44,1.13c-0.22,0.5-0.54,1.02-0.95,1.55c-0.48,0.63-0.95,1.16-1.42,1.6
		c-0.47,0.44-0.91,0.79-1.32,1.05l-0.99-0.88c0.46-0.29,0.96-0.66,1.5-1.13c0.54-0.46,1.02-0.99,1.43-1.59
		c0.45-0.64,0.81-1.39,1.1-2.23c0.28-0.85,0.43-1.67,0.43-2.47v-1.39h-3.53v-1.08h8.49v1.08h-3.62v1.39c0,0.79,0.13,1.6,0.38,2.42
		c0.26,0.82,0.61,1.54,1.05,2.15c0.44,0.6,0.88,1.08,1.33,1.44c0.45,0.37,0.86,0.65,1.21,0.84L24.82,79.53z M28.74,74.76v7.85h-1.26
		V67.49h1.26v6.17h2.41v1.1H28.74z"/>
	<path class="st2" d="M31.64,75.98v-1.06h6.71v-2.03h-4.71v-4.81h10.73v1.07h-9.49v2.68h9.66v1.07h-4.91v2.03h6.73v1.06H31.64z
		 M43.22,82.1c-0.98,0.54-2.39,0.82-4.22,0.82c-1.82,0-3.22-0.27-4.21-0.82c-0.99-0.55-1.48-1.23-1.48-2.05
		c0-0.84,0.49-1.52,1.48-2.06c0.99-0.54,2.39-0.81,4.21-0.81c1.83,0,3.24,0.27,4.22,0.81c0.98,0.54,1.47,1.23,1.47,2.06
		C44.7,80.87,44.21,81.56,43.22,82.1z M35.88,81.37c0.8,0.33,1.84,0.5,3.12,0.5c1.26,0,2.29-0.17,3.1-0.5
		c0.8-0.33,1.21-0.77,1.21-1.32c0-0.57-0.4-1.03-1.21-1.36c-0.8-0.33-1.84-0.5-3.1-0.5c-1.28,0-2.32,0.16-3.12,0.49
		c-0.8,0.33-1.2,0.78-1.2,1.35C34.68,80.59,35.08,81.04,35.88,81.37z"/>
	<path class="st2" d="M55.25,71.66c-0.49,1.03-1.13,1.9-1.91,2.61c-0.92,0.8-1.74,1.4-2.48,1.79c-0.74,0.39-1.42,0.7-2.06,0.95
		l-0.85-0.84c0.61-0.21,1.29-0.5,2.04-0.89c0.75-0.39,1.5-0.89,2.24-1.51c0.81-0.68,1.39-1.38,1.73-2.12
		c0.34-0.74,0.56-1.4,0.66-1.98h-5.66v-1.05h7.13C56.02,69.61,55.74,70.63,55.25,71.66z M50.61,82.26v-4.67h1.26v3.61h9.49v1.07
		H50.61z M59.63,78.47v-3.76H56.4v-1.07h3.23v-2.39h-2.98V70.2h2.98v-2.71h1.24v10.98H59.63z"/>
	<path class="st2" d="M72.41,75.8c-0.2-0.07-0.56-0.22-1.06-0.46c-0.51-0.23-0.99-0.56-1.45-0.99c-0.38-0.37-0.68-0.69-0.9-0.97
		c-0.22-0.28-0.43-0.6-0.62-0.95c-0.13,0.34-0.34,0.69-0.61,1.05c-0.27,0.36-0.61,0.72-1,1.1c-0.45,0.42-0.9,0.77-1.37,1.05
		c-0.47,0.27-0.83,0.47-1.07,0.58l-0.87-0.89c0.39-0.18,0.87-0.44,1.43-0.78c0.56-0.34,1.08-0.76,1.55-1.26
		c0.36-0.38,0.66-0.85,0.92-1.43c0.26-0.57,0.39-1.2,0.39-1.87v-0.41H64.4v-1.05h7.99v1.05h-3.35v0.41c0,0.68,0.12,1.28,0.36,1.81
		s0.56,1,0.95,1.4c0.44,0.44,0.94,0.8,1.52,1.08c0.57,0.29,1,0.48,1.28,0.57L72.41,75.8z M75.57,82.61v-4.07h-9.39v-1.05h10.63v5.12
		H75.57z M75.57,76.48v-4.25h-3.42v-1.1h3.42v-3.64h1.24v8.99H75.57z"/>
</g>
<g>
	<path class="st8" d="M58.07,52.11H35.93c-2.83,0-5.13-2.3-5.13-5.13V21.68c0-2.83,2.3-5.13,5.13-5.13h22.14
		c2.83,0,5.13,2.3,5.13,5.13v25.31C63.19,49.81,60.89,52.11,58.07,52.11z M35.93,18.2c-1.92,0-3.48,1.56-3.48,3.48v25.31
		c0,1.92,1.56,3.48,3.48,3.48h22.14c1.92,0,3.48-1.56,3.48-3.48V21.68c0-1.92-1.56-3.48-3.48-3.48H35.93z"/>
	<path class="st8" d="M57.82,29.78H36.17v-8.1h21.65V29.78z M37.82,28.13h18.36v-4.8H37.82V28.13z"/>
	<rect x="37.59" y="33.69" class="st8" width="4.39" height="1.83"/>
	<rect x="44.8" y="33.69" class="st8" width="4.39" height="1.83"/>
	<rect x="52.01" y="33.69" class="st8" width="4.39" height="1.83"/>
	<rect x="37.59" y="38.86" class="st8" width="4.39" height="1.83"/>
	<rect x="44.8" y="38.86" class="st8" width="4.39" height="1.83"/>
	<rect x="52.01" y="38.86" class="st8" width="4.39" height="1.83"/>
	<rect x="37.59" y="44.03" class="st8" width="4.39" height="1.83"/>
	<rect x="44.8" y="44.03" class="st8" width="4.39" height="1.83"/>
	<rect x="52.01" y="44.03" class="st8" width="4.39" height="1.83"/>
</g>
</svg>
