<?xml version="1.0" encoding="utf-8"?>
<!-- Generator: Adobe Illustrator 23.0.1, SVG Export Plug-In . SVG Version: 6.00 Build 0)  -->
<svg version="1.1" id="레이어_1" xmlns="http://www.w3.org/2000/svg" xmlns:xlink="http://www.w3.org/1999/xlink" x="0px"
	 y="0px" viewBox="0 0 100 100" style="enable-background:new 0 0 100 100;" xml:space="preserve">
<style type="text/css">
	.st0{fill:#FFFFFF;}
</style>
<g>
	<path class="st0" d="M48.77,81.8H22.98c-2.65,0-4.8-2.15-4.8-4.8V21.91c0-2.65,2.15-4.8,4.8-4.8h48.97c2.65,0,4.8,2.15,4.8,4.8
		v27.45h-1.5V21.91c0-1.82-1.48-3.3-3.3-3.3H22.98c-1.82,0-3.3,1.48-3.3,3.3V77c0,1.82,1.48,3.3,3.3,3.3h25.79V81.8z"/>
	<path class="st0" d="M69.29,41.04h-42.2c-0.87,0-1.58-0.71-1.58-1.58V27.45c0-0.87,0.71-1.58,1.58-1.58h42.2
		c0.87,0,1.58,0.71,1.58,1.58v12.02C70.87,40.34,70.16,41.04,69.29,41.04z M27.09,26.87c-0.32,0-0.58,0.26-0.58,0.58v12.02
		c0,0.32,0.26,0.58,0.58,0.58h42.2c0.32,0,0.58-0.26,0.58-0.58V27.45c0-0.32-0.26-0.58-0.58-0.58H27.09z"/>
	<path class="st0" d="M38.4,53.91h-9.52c-0.65,0-1.18-0.53-1.18-1.18v-2.18c0-0.65,0.53-1.18,1.18-1.18h9.52
		c0.65,0,1.18,0.53,1.18,1.18v2.18C39.59,53.38,39.05,53.91,38.4,53.91z"/>
	<path class="st0" d="M38.4,63.36h-9.52c-0.65,0-1.18-0.53-1.18-1.18V60c0-0.65,0.53-1.18,1.18-1.18h9.52
		c0.65,0,1.18,0.53,1.18,1.18v2.18C39.59,62.83,39.05,63.36,38.4,63.36z"/>
	<path class="st0" d="M38.4,73.9l-9.52,0c-0.65,0-1.18-0.53-1.18-1.18v-2.18c0-0.65,0.53-1.18,1.18-1.18h9.52
		c0.65,0,1.18,0.53,1.18,1.18v2.18C39.59,73.36,39.05,73.9,38.4,73.9z"/>
	<path class="st0" d="M53.53,53.91h-9.52c-0.65,0-1.18-0.53-1.18-1.18v-2.18c0-0.65,0.53-1.18,1.18-1.18h9.52
		c0.65,0,1.18,0.53,1.18,1.18v2.18C54.71,53.38,54.18,53.91,53.53,53.91z"/>
	<path class="st0" d="M66.05,83.69c-8.75,0-15.87-7.12-15.87-15.87c0-8.75,7.12-15.87,15.87-15.87c8.75,0,15.87,7.12,15.87,15.87
		C81.92,76.57,74.8,83.69,66.05,83.69z M66.05,53.45c-7.92,0-14.37,6.45-14.37,14.37c0,7.93,6.45,14.37,14.37,14.37
		c7.93,0,14.37-6.45,14.37-14.37C80.42,59.89,73.98,53.45,66.05,53.45z"/>
	<path class="st0" d="M66.05,74.65c-0.41,0-0.75-0.34-0.75-0.75V59.45c0-0.41,0.34-0.75,0.75-0.75s0.75,0.34,0.75,0.75V73.9
		C66.8,74.31,66.46,74.65,66.05,74.65z"/>
	<path class="st0" d="M66.05,75.73C66.05,75.73,66.05,75.73,66.05,75.73c-0.24,0-0.46-0.12-0.61-0.31l-6.08-8.3
		c-0.24-0.33-0.17-0.8,0.16-1.05c0.34-0.25,0.8-0.17,1.05,0.16l5.48,7.49l5.6-7.49c0.25-0.33,0.72-0.4,1.05-0.15
		c0.33,0.25,0.4,0.72,0.15,1.05l-6.21,8.3C66.51,75.61,66.29,75.73,66.05,75.73z"/>
</g>
</svg>
