<?xml version="1.0" encoding="utf-8"?>
<!-- Generator: Adobe Illustrator 23.0.1, SVG Export Plug-In . SVG Version: 6.00 Build 0)  -->
<svg version="1.1" id="레이어_1" xmlns="http://www.w3.org/2000/svg" xmlns:xlink="http://www.w3.org/1999/xlink" x="0px"
	 y="0px" viewBox="0 0 200 150" style="enable-background:new 0 0 200 150;" xml:space="preserve">
<style type="text/css">
	.st0{fill:#FFFFFF;}
</style>
<path class="st0" d="M187.73,98H35.14c-12.8,0-23.2-10.41-23.2-23.2s10.41-23.2,23.2-23.2h129.39c12.8,0,23.21,10.41,23.21,23.2V98z
	 M35.14,53.47c-11.76,0-21.33,9.57-21.33,21.33s9.57,21.33,21.33,21.33h150.71V74.8c0-11.76-9.57-21.33-21.33-21.33H35.14z"/>
<g>
	<path class="st0" d="M34.22,75.25c-0.3-0.12-0.65-0.3-1.07-0.54c-0.42-0.24-0.8-0.51-1.15-0.81c-0.29-0.25-0.54-0.49-0.77-0.72
		c-0.22-0.23-0.44-0.51-0.65-0.84c-0.18,0.34-0.4,0.66-0.65,0.98c-0.25,0.31-0.55,0.62-0.88,0.91c-0.39,0.35-0.74,0.62-1.03,0.83
		c-0.29,0.21-0.6,0.4-0.93,0.59l-1.31-1.32c0.4-0.22,0.85-0.5,1.33-0.85c0.48-0.35,0.92-0.76,1.32-1.21
		c0.44-0.5,0.74-1.02,0.91-1.55c0.17-0.54,0.25-1.12,0.25-1.75v-1.01h1.96v1.01c0,0.63,0.1,1.2,0.29,1.72
		c0.19,0.52,0.47,0.99,0.85,1.4c0.43,0.43,0.86,0.79,1.3,1.08c0.44,0.29,0.87,0.51,1.3,0.68L34.22,75.25z M37.49,81.25
		c-0.93,0.54-2.28,0.81-4.06,0.81c-1.76,0-3.12-0.27-4.05-0.81c-0.94-0.54-1.4-1.23-1.4-2.09c0-0.84,0.47-1.53,1.4-2.09
		c0.94-0.56,2.29-0.84,4.05-0.84c1.78,0,3.13,0.28,4.06,0.83c0.93,0.55,1.4,1.25,1.4,2.1C38.89,80.02,38.42,80.71,37.49,81.25z
		 M30.97,80.19c0.62,0.27,1.45,0.4,2.48,0.4c1.01,0,1.83-0.13,2.46-0.39c0.63-0.26,0.95-0.6,0.95-1.01c0-0.43-0.32-0.78-0.95-1.03
		c-0.63-0.25-1.45-0.38-2.46-0.38c-1.03,0-1.86,0.12-2.48,0.37c-0.62,0.25-0.93,0.59-0.93,1.03C30.04,79.58,30.35,79.92,30.97,80.19
		z M38.43,72.52v3.4h-1.85v-8.36h1.85v3.25h1.9v1.71H38.43z"/>
	<path class="st0" d="M47.69,74.7c-0.98,0.09-1.99,0.14-3.03,0.15l-3.33,0.02v-6.43h7.21v1.68h-5.36v3.08l2.3-0.02
		c0.62-0.01,1.38-0.05,2.28-0.12c0.9-0.07,1.6-0.15,2.09-0.24v1.64C49.39,74.53,48.67,74.61,47.69,74.7z M42.84,81.71v-5.48h9.89
		v5.48H42.84z M50.88,77.89h-6.2v2.18h6.2V77.89z M52.73,72.34v3.17h-1.85v-7.96h1.85v3.12h1.95v1.66H52.73z"/>
	<path class="st0" d="M56.56,70.04v-1.68h7.37v1.68h-2.71v0.21c0,0.58,0.12,1.1,0.35,1.56c0.23,0.47,0.55,0.87,0.94,1.2
		c0.4,0.34,0.76,0.59,1.07,0.76c0.31,0.17,0.66,0.33,1.05,0.46l-1.12,1.46c-0.27-0.1-0.53-0.22-0.81-0.36
		c-0.27-0.14-0.6-0.35-1-0.63c-0.3-0.22-0.56-0.44-0.8-0.68c-0.23-0.23-0.46-0.47-0.67-0.72c-0.15,0.27-0.34,0.55-0.58,0.82
		c-0.24,0.28-0.53,0.55-0.87,0.82c-0.37,0.3-0.73,0.55-1.07,0.73c-0.34,0.18-0.64,0.34-0.91,0.47l-1.32-1.42
		c0.4-0.17,0.81-0.39,1.23-0.63c0.41-0.25,0.85-0.58,1.31-0.98c0.37-0.34,0.67-0.75,0.89-1.25c0.22-0.5,0.33-1.04,0.33-1.63v-0.21
		H56.56z M58.2,81.55v-4.67h1.85v3.03h8.72v1.64H58.2z M66.62,77.9v-5.35h-2.81v-1.72h2.81v-3.27h1.85V77.9H66.62z"/>
	<path class="st0" d="M77.05,79.66c-1.21,0.09-2.53,0.13-3.96,0.13h-3.11v-1.68h3.97v-1.11c-0.8-0.13-1.46-0.4-1.98-0.82
		c-0.52-0.42-0.78-0.91-0.78-1.47c0-0.67,0.36-1.24,1.07-1.69c0.71-0.46,1.58-0.68,2.62-0.68c1.12,0,2.01,0.23,2.68,0.69
		c0.67,0.46,1,1.02,1,1.68c0,0.54-0.25,1.02-0.74,1.43c-0.49,0.41-1.12,0.68-1.87,0.81v1.09c0.25,0,0.84-0.03,1.75-0.1
		c0.91-0.07,1.62-0.14,2.14-0.21v1.68C79.19,79.49,78.26,79.57,77.05,79.66z M70.61,71.83v-1.58h8.45v1.58H70.61z M72.57,69.44
		v-1.53h4.5v1.53H72.57z M76.21,74.02c-0.34-0.18-0.78-0.27-1.32-0.27c-0.49,0-0.91,0.09-1.26,0.27c-0.35,0.18-0.53,0.41-0.53,0.69
		c0,0.27,0.18,0.49,0.53,0.66c0.35,0.17,0.77,0.25,1.26,0.25c0.51,0,0.94-0.08,1.3-0.25c0.36-0.17,0.53-0.39,0.53-0.66
		C76.72,74.43,76.55,74.2,76.21,74.02z M82.27,75.05v6.82h-1.85V67.55h1.85v5.81h2.01v1.69H82.27z"/>
</g>
<g>
	<path class="st0" d="M96.56,80.67v-8.33h-2.42v-1.45c0.37,0,0.72-0.05,1.05-0.15c0.32-0.1,0.62-0.25,0.9-0.46
		c0.19-0.15,0.37-0.36,0.54-0.63c0.17-0.27,0.26-0.56,0.27-0.86h1.36v11.88H96.56z"/>
	<path class="st0" d="M108.93,74.08c0.67,0.79,1,1.74,1,2.83c0,1.13-0.37,2.08-1.11,2.86c-0.74,0.78-1.66,1.17-2.77,1.17
		c-1.07,0-1.93-0.32-2.58-0.95c-0.64-0.63-1.1-1.39-1.38-2.25c-0.24-0.79-0.35-1.82-0.33-3.08c0.03-1.26,0.19-2.32,0.5-3.18
		c0.33-0.9,0.81-1.62,1.45-2.16c0.64-0.54,1.44-0.81,2.41-0.81c1.01,0,1.85,0.36,2.54,1.07c0.68,0.71,1.07,1.48,1.18,2.32h-1.61
		c-0.06-0.38-0.28-0.78-0.64-1.21c-0.36-0.43-0.86-0.64-1.48-0.64c-0.67,0-1.16,0.2-1.47,0.59c-0.31,0.4-0.55,0.8-0.69,1.2
		c-0.15,0.38-0.24,0.75-0.29,1.11c-0.04,0.36-0.06,0.66-0.05,0.91c0.34-0.34,0.73-0.59,1.16-0.77c0.44-0.18,0.95-0.26,1.55-0.24
		C107.4,72.87,108.26,73.29,108.93,74.08z M107.53,78.68c0.39-0.46,0.59-1.05,0.59-1.77c0-0.71-0.2-1.29-0.59-1.75
		c-0.39-0.46-0.92-0.69-1.56-0.69c-0.63,0-1.13,0.23-1.52,0.69c-0.39,0.46-0.58,1.04-0.58,1.75c0,0.73,0.19,1.32,0.58,1.77
		c0.39,0.46,0.9,0.68,1.52,0.68C106.62,79.37,107.14,79.14,107.53,78.68z"/>
	<path class="st0" d="M117.9,70.32c0.73,1.14,1.09,2.6,1.09,4.38c0,1.8-0.36,3.28-1.09,4.43c-0.73,1.16-1.77,1.73-3.13,1.73
		c-1.36,0-2.4-0.58-3.11-1.73c-0.71-1.16-1.07-2.63-1.07-4.43c0-1.78,0.36-3.24,1.07-4.38c0.71-1.14,1.75-1.71,3.11-1.71
		C116.13,68.61,117.18,69.18,117.9,70.32z M116.53,77.94c0.39-0.87,0.58-1.96,0.58-3.25c0-1.27-0.19-2.33-0.58-3.2
		c-0.39-0.86-0.98-1.29-1.76-1.29c-0.77,0-1.34,0.43-1.72,1.29c-0.38,0.86-0.57,1.93-0.57,3.2c0,1.29,0.19,2.37,0.57,3.25
		c0.38,0.87,0.96,1.31,1.72,1.31C115.56,79.25,116.15,78.82,116.53,77.94z"/>
	<path class="st0" d="M126.87,70.32c0.73,1.14,1.09,2.6,1.09,4.38c0,1.8-0.36,3.28-1.09,4.43c-0.73,1.16-1.77,1.73-3.13,1.73
		c-1.36,0-2.4-0.58-3.11-1.73c-0.71-1.16-1.07-2.63-1.07-4.43c0-1.78,0.36-3.24,1.07-4.38c0.71-1.14,1.75-1.71,3.11-1.71
		C125.09,68.61,126.14,69.18,126.87,70.32z M125.5,77.94c0.39-0.87,0.58-1.96,0.58-3.25c0-1.27-0.19-2.33-0.58-3.2
		c-0.39-0.86-0.98-1.29-1.76-1.29c-0.77,0-1.34,0.43-1.72,1.29c-0.38,0.86-0.57,1.93-0.57,3.2c0,1.29,0.19,2.37,0.57,3.25
		c0.38,0.87,0.96,1.31,1.72,1.31C124.52,79.25,125.11,78.82,125.5,77.94z"/>
	<path class="st0" d="M128.66,75.79v-1.72h9.31v1.72H128.66z"/>
	<path class="st0" d="M146.73,70.58c-0.29,0.33-0.66,0.86-1.12,1.59c-0.46,0.74-0.92,1.61-1.39,2.6c-0.49,1.03-0.88,2.11-1.16,3.24
		c-0.28,1.13-0.42,2.02-0.41,2.67h-1.91c0.03-0.54,0.15-1.33,0.36-2.35c0.21-1.03,0.57-2.08,1.08-3.15
		c0.45-0.92,0.93-1.83,1.44-2.71c0.52-0.88,0.92-1.53,1.22-1.93h-5.71v-1.61h7.59V70.58z"/>
	<path class="st0" d="M155.69,70.58c-0.29,0.33-0.66,0.86-1.12,1.59c-0.46,0.74-0.92,1.61-1.39,2.6c-0.49,1.03-0.88,2.11-1.16,3.24
		c-0.28,1.13-0.42,2.02-0.41,2.67h-1.91c0.03-0.54,0.15-1.33,0.36-2.35c0.21-1.03,0.57-2.08,1.08-3.15
		c0.45-0.92,0.93-1.83,1.44-2.71c0.52-0.88,0.92-1.53,1.22-1.93h-5.71v-1.61h7.59V70.58z"/>
	<path class="st0" d="M163.59,73.87c0.73,0.6,1.09,1.58,1.09,2.95c0,1.29-0.42,2.3-1.26,3.02c-0.84,0.72-1.73,1.08-2.68,1.08
		c-1.18,0-2.1-0.37-2.76-1.1c-0.66-0.73-1.04-1.51-1.15-2.33h1.64c0.07,0.47,0.3,0.89,0.69,1.27c0.39,0.38,0.9,0.57,1.52,0.57
		c0.63,0,1.14-0.23,1.53-0.7c0.39-0.47,0.6-1.06,0.61-1.77c0.01-0.73-0.17-1.33-0.54-1.82c-0.37-0.49-0.89-0.73-1.55-0.73
		c-0.46,0-0.85,0.08-1.19,0.24s-0.59,0.37-0.77,0.62h-1.69l0.92-6.22h6.14v1.58h-4.71l-0.4,2.78c0.37-0.23,0.78-0.38,1.22-0.45
		c0.44-0.07,0.86-0.07,1.27-0.01C162.18,72.93,162.86,73.27,163.59,73.87z"/>
	<path class="st0" d="M173.5,75.7c0.33,0.53,0.5,1.08,0.5,1.66c0,0.99-0.42,1.84-1.26,2.57c-0.84,0.73-1.84,1.09-3,1.09
		c-1.18,0-2.19-0.36-3.02-1.09c-0.83-0.73-1.25-1.58-1.25-2.57c0-0.58,0.16-1.13,0.49-1.66c0.32-0.53,0.78-0.98,1.36-1.35
		c-0.47-0.33-0.83-0.72-1.08-1.19c-0.26-0.47-0.38-0.93-0.38-1.4c0-0.88,0.38-1.65,1.13-2.3c0.75-0.66,1.67-0.98,2.76-0.98
		c1.05,0,1.96,0.33,2.72,0.98c0.76,0.66,1.14,1.42,1.14,2.3c0,0.47-0.12,0.93-0.37,1.4c-0.24,0.47-0.6,0.86-1.07,1.17
		C172.73,74.72,173.17,75.17,173.5,75.7z M171.54,78.8c0.45-0.41,0.67-0.89,0.67-1.45c0-0.6-0.22-1.1-0.67-1.5
		c-0.45-0.4-1.05-0.6-1.8-0.6c-0.78,0-1.38,0.2-1.81,0.6c-0.43,0.4-0.65,0.9-0.65,1.5c0,0.55,0.22,1.04,0.65,1.45
		c0.43,0.41,1.03,0.62,1.81,0.62C170.5,79.41,171.1,79.21,171.54,78.8z M171.27,73.03c0.35-0.33,0.53-0.73,0.53-1.2
		c0-0.49-0.18-0.9-0.53-1.24c-0.35-0.34-0.86-0.51-1.53-0.51c-0.72,0-1.25,0.17-1.58,0.52c-0.33,0.35-0.49,0.76-0.49,1.24
		c0,0.47,0.16,0.87,0.49,1.2c0.33,0.33,0.86,0.5,1.58,0.5C170.41,73.52,170.92,73.36,171.27,73.03z"/>
</g>
</svg>
