<?xml version="1.0" encoding="utf-8"?>
<!-- Generator: Adobe Illustrator 23.0.0, SVG Export Plug-In . SVG Version: 6.00 Build 0)  -->
<svg version="1.1" id="레이어_1" xmlns="http://www.w3.org/2000/svg" xmlns:xlink="http://www.w3.org/1999/xlink" x="0px"
	 y="0px" viewBox="0 0 223.7 80" style="enable-background:new 0 0 223.7 80;" xml:space="preserve">
<style type="text/css">
	.st0{fill:#FFFFFF;}
	.st1{font-family:'YDIYGO340';}
	.st2{font-size:18.0294px;}
</style>
<g>
	<path class="st0" d="M25.9,40.9c-0.3-0.1-0.7-0.3-1.1-0.6c-0.4-0.3-0.8-0.5-1.2-0.8c-0.3-0.3-0.6-0.5-0.8-0.8
		c-0.2-0.2-0.5-0.5-0.7-0.9c-0.2,0.3-0.4,0.7-0.7,1c-0.3,0.3-0.6,0.7-0.9,1c-0.4,0.4-0.8,0.7-1.1,0.9c-0.3,0.2-0.6,0.4-1,0.6
		L17,39.9c0.4-0.2,0.9-0.5,1.4-0.9c0.5-0.4,1-0.8,1.4-1.3c0.5-0.5,0.8-1.1,1-1.6c0.2-0.6,0.3-1.2,0.3-1.8v-1.1h2v1.1
		c0,0.7,0.1,1.3,0.3,1.8c0.2,0.5,0.5,1,0.9,1.5c0.5,0.5,0.9,0.8,1.4,1.1c0.5,0.3,0.9,0.5,1.4,0.7L25.9,40.9z M29.3,47.2
		c-1,0.6-2.4,0.8-4.3,0.8c-1.9,0-3.3-0.3-4.2-0.8s-1.5-1.3-1.5-2.2c0-0.9,0.5-1.6,1.5-2.2c1-0.6,2.4-0.9,4.2-0.9
		c1.9,0,3.3,0.3,4.3,0.9c1,0.6,1.5,1.3,1.5,2.2S30.3,46.6,29.3,47.2z M22.5,46.1c0.6,0.3,1.5,0.4,2.6,0.4c1.1,0,1.9-0.1,2.6-0.4
		s1-0.6,1-1.1c0-0.5-0.3-0.8-1-1.1s-1.5-0.4-2.6-0.4c-1.1,0-1.9,0.1-2.6,0.4c-0.6,0.3-1,0.6-1,1.1C21.5,45.5,21.8,45.8,22.5,46.1z
		 M30.3,38v3.6h-1.9v-8.8h1.9v3.4h2V38H30.3z"/>
	<path class="st0" d="M40,40.3c-1,0.1-2.1,0.2-3.2,0.2l-3.5,0v-6.7h7.5v1.8h-5.6v3.2l2.4,0c0.7,0,1.4,0,2.4-0.1
		c1-0.1,1.7-0.2,2.2-0.3v1.7C41.8,40.2,41,40.3,40,40.3z M34.9,47.7v-5.7h10.4v5.7H34.9z M43.3,43.7h-6.5v2.3h6.5V43.7z M45.3,37.9
		v3.3h-1.9v-8.3h1.9v3.3h2v1.7C47.3,37.9,45.3,37.9,45.3,37.9z"/>
	<path class="st0" d="M49.3,35.5v-1.8H57v1.8h-2.8v0.2c0,0.6,0.1,1.2,0.4,1.6c0.3,0.5,0.6,0.9,1,1.3c0.4,0.3,0.8,0.6,1.1,0.8
		s0.7,0.3,1.1,0.5l-1.2,1.5c-0.3-0.1-0.6-0.2-0.8-0.4s-0.6-0.4-1-0.7c-0.3-0.2-0.6-0.5-0.8-0.7c-0.3-0.2-0.5-0.5-0.7-0.8
		c-0.2,0.3-0.4,0.6-0.6,0.9s-0.5,0.6-0.9,0.9c-0.4,0.3-0.8,0.6-1.1,0.8c-0.4,0.2-0.7,0.4-1,0.5l-1.4-1.5c0.4-0.2,0.8-0.4,1.3-0.7
		c0.4-0.3,0.9-0.6,1.4-1c0.4-0.3,0.7-0.8,0.9-1.3s0.3-1.1,0.3-1.7v-0.2L49.3,35.5L49.3,35.5z M51,47.5v-4.9h1.9v3.2h9.1v1.7
		C62.1,47.5,51,47.5,51,47.5z M59.8,43.7v-5.6h-2.9v-1.8h2.9v-3.4h1.9v10.8H59.8z"/>
	<path class="st0" d="M70.7,45.5c-1.3,0.1-2.7,0.1-4.1,0.1h-3.3v-1.8h4.2v-1.2c-0.8-0.1-1.5-0.4-2.1-0.9c-0.6-0.4-0.8-1-0.8-1.5
		c0-0.7,0.4-1.3,1.1-1.8c0.8-0.5,1.7-0.7,2.7-0.7c1.2,0,2.1,0.2,2.8,0.7c0.7,0.5,1.1,1.1,1.1,1.8c0,0.6-0.3,1.1-0.8,1.5
		s-1.2,0.7-2,0.8v1.1c0.3,0,0.9,0,1.8-0.1c0.9-0.1,1.7-0.1,2.3-0.2v1.8C73,45.4,72,45.4,70.7,45.5z M64,37.3v-1.7h8.9v1.7H64z
		 M66,34.8v-1.6h4.7v1.6H66z M69.8,39.6c-0.4-0.2-0.8-0.3-1.4-0.3c-0.5,0-0.9,0.1-1.3,0.3s-0.6,0.4-0.6,0.7c0,0.3,0.2,0.5,0.6,0.7
		s0.8,0.3,1.3,0.3c0.5,0,1-0.1,1.4-0.3c0.4-0.2,0.6-0.4,0.6-0.7C70.4,40.1,70.2,39.8,69.8,39.6z M76.2,40.7v7.1h-1.9v-15h1.9v6.1
		h2.1v1.8C78.3,40.7,76.2,40.7,76.2,40.7z"/>
</g>
<path class="st0" d="M221.1,63.8H31.4c-15.9,0-28.9-10.9-28.9-24.3s12.9-24.3,28.9-24.3h160.9c15.9,0,28.9,10.9,28.9,24.3
	L221.1,63.8L221.1,63.8z M31.4,17.2c-14.6,0-26.5,10-26.5,22.3s11.9,22.3,26.5,22.3h187.4V39.5c0-12.3-11.9-22.3-26.5-22.3
	C192.3,17.2,31.4,17.2,31.4,17.2z"/>
<text transform="matrix(1 0 0 1 85.9912 45.7607)" class="st0 st1 st2">080-468-1000</text>
</svg>
