<?xml version="1.0" encoding="utf-8"?>
<!-- Generator: Adobe Illustrator 23.0.0, SVG Export Plug-In . SVG Version: 6.00 Build 0)  -->
<svg version="1.1" id="레이어_1" xmlns="http://www.w3.org/2000/svg" xmlns:xlink="http://www.w3.org/1999/xlink" x="0px"
	 y="0px" viewBox="0 0 223.7 80" style="enable-background:new 0 0 223.7 80;" xml:space="preserve">
<style type="text/css">
	.st0{fill:#FFFFFF;}
	.st1{font-family:'YDIYGO340';}
	.st2{font-size:17.1124px;}
</style>
<g>
	<path class="st0" d="M25.88,40.91c-0.31-0.12-0.68-0.31-1.12-0.56c-0.43-0.25-0.84-0.53-1.2-0.85c-0.3-0.26-0.57-0.51-0.8-0.76
		c-0.23-0.24-0.46-0.54-0.68-0.88c-0.19,0.35-0.42,0.69-0.68,1.02c-0.27,0.33-0.57,0.65-0.92,0.95c-0.41,0.36-0.77,0.65-1.08,0.87
		c-0.31,0.22-0.63,0.42-0.98,0.61l-1.37-1.38c0.42-0.23,0.89-0.53,1.39-0.89c0.51-0.37,0.97-0.79,1.38-1.27
		c0.46-0.52,0.77-1.06,0.95-1.63c0.18-0.56,0.27-1.17,0.27-1.83v-1.06h2.05v1.06c0,0.66,0.1,1.26,0.3,1.81
		c0.2,0.55,0.5,1.03,0.89,1.47c0.45,0.45,0.9,0.83,1.36,1.13c0.46,0.3,0.92,0.54,1.36,0.71L25.88,40.91z M29.31,47.2
		c-0.97,0.57-2.39,0.85-4.25,0.85c-1.85,0-3.26-0.28-4.24-0.84c-0.98-0.56-1.47-1.29-1.47-2.19c0-0.87,0.49-1.6,1.47-2.19
		c0.98-0.58,2.39-0.88,4.24-0.88c1.86,0,3.28,0.29,4.25,0.87c0.97,0.58,1.46,1.31,1.46,2.2C30.77,45.91,30.28,46.63,29.31,47.2z
		 M22.48,46.09c0.65,0.28,1.52,0.42,2.6,0.42c1.06,0,1.92-0.14,2.58-0.41c0.66-0.27,0.99-0.62,0.99-1.06c0-0.45-0.33-0.81-0.99-1.08
		c-0.66-0.27-1.52-0.4-2.58-0.4c-1.08,0-1.94,0.13-2.6,0.39c-0.65,0.26-0.98,0.62-0.98,1.07C21.5,45.45,21.83,45.81,22.48,46.09z
		 M30.29,38.05v3.56h-1.94v-8.76h1.94v3.41h1.99v1.79H30.29z"/>
	<path class="st0" d="M39.99,40.34c-1.02,0.1-2.08,0.15-3.17,0.16l-3.49,0.02v-6.73h7.55v1.75h-5.61v3.22l2.4-0.02
		c0.65-0.01,1.44-0.05,2.39-0.13c0.95-0.07,1.68-0.16,2.19-0.25v1.72C41.76,40.17,41.01,40.25,39.99,40.34z M34.91,47.68v-5.74
		h10.35v5.74H34.91z M43.33,43.67h-6.49v2.28h6.49V43.67z M45.26,37.87v3.32h-1.94v-8.33h1.94v3.27h2.04v1.74H45.26z"/>
	<path class="st0" d="M49.27,35.46v-1.76h7.71v1.76h-2.84v0.22c0,0.6,0.12,1.15,0.37,1.64c0.25,0.49,0.57,0.91,0.99,1.26
		c0.42,0.35,0.8,0.62,1.12,0.8c0.32,0.18,0.69,0.34,1.1,0.48l-1.17,1.53c-0.28-0.1-0.56-0.23-0.84-0.38
		c-0.28-0.15-0.63-0.37-1.04-0.66c-0.31-0.23-0.59-0.46-0.83-0.71c-0.25-0.24-0.48-0.5-0.7-0.76c-0.16,0.28-0.36,0.57-0.61,0.86
		c-0.25,0.29-0.55,0.58-0.91,0.86c-0.39,0.32-0.76,0.57-1.12,0.77c-0.36,0.19-0.67,0.36-0.95,0.49l-1.39-1.48
		c0.42-0.18,0.85-0.4,1.29-0.66c0.43-0.26,0.89-0.6,1.37-1.02c0.39-0.35,0.7-0.79,0.93-1.31c0.23-0.52,0.35-1.09,0.35-1.7v-0.22
		H49.27z M50.99,47.51v-4.89h1.94v3.17h9.13v1.72H50.99z M59.8,43.69v-5.61h-2.94v-1.81h2.94v-3.42h1.94v10.84H59.8z"/>
	<path class="st0" d="M70.72,45.53c-1.27,0.09-2.65,0.14-4.14,0.14h-3.26v-1.75h4.16v-1.16c-0.83-0.14-1.52-0.42-2.07-0.86
		c-0.55-0.44-0.82-0.95-0.82-1.54c0-0.7,0.37-1.3,1.12-1.77c0.75-0.48,1.66-0.72,2.74-0.72c1.17,0,2.1,0.24,2.8,0.72
		c0.7,0.48,1.05,1.07,1.05,1.76c0,0.57-0.26,1.07-0.78,1.5c-0.52,0.43-1.17,0.72-1.96,0.85v1.14c0.27,0,0.88-0.03,1.83-0.1
		c0.95-0.07,1.7-0.14,2.25-0.22v1.75C72.97,45.36,71.99,45.44,70.72,45.53z M63.98,37.34v-1.65h8.85v1.65H63.98z M66.03,34.83v-1.6
		h4.71v1.6H66.03z M69.84,39.63c-0.36-0.19-0.82-0.28-1.39-0.28c-0.51,0-0.95,0.09-1.32,0.28s-0.55,0.43-0.55,0.72
		c0,0.28,0.18,0.51,0.55,0.69c0.37,0.18,0.81,0.26,1.32,0.26c0.53,0,0.99-0.09,1.36-0.26c0.37-0.18,0.56-0.41,0.56-0.69
		C70.37,40.06,70.2,39.82,69.84,39.63z M76.18,40.71v7.14h-1.94V32.86h1.94v6.08h2.1v1.77H76.18z"/>
</g>
<path class="st0" d="M221.15,63.78H31.41c-15.91,0-28.85-10.9-28.85-24.3s12.94-24.3,28.85-24.3h160.89
	c15.91,0,28.85,10.9,28.85,24.3V63.78z M31.41,17.16c-14.62,0-26.52,10.02-26.52,22.33s11.9,22.33,26.52,22.33h187.41V39.49
	c0-12.31-11.9-22.33-26.52-22.33H31.41z"/>
<text transform="matrix(1 0 0 1 90.1504 45.5264)" class="st0 st1 st2">02-3484-7000</text>
</svg>
